<svg xmlns="http://www.w3.org/2000/svg" xmlns:xlink="http://www.w3.org/1999/xlink" width="250" zoomAndPan="magnify" viewBox="0 0 375 292.499991" height="170" preserveAspectRatio="xMidYMid meet" version="1.0"><defs><clipPath id="bf86bf882a"><path d="M 51.046875 23 L 334 23 L 334 259.246094 L 51.046875 259.246094 Z M 51.046875 23 " clip-rule="nonzero"/></clipPath><clipPath id="0f51f42d66"><path d="M 59 61 L 65 61 L 65 65 L 59 65 Z M 59 61 " clip-rule="nonzero"/></clipPath><clipPath id="96214b6cb8"><path d="M 26.597656 91.273438 L 69.894531 44.625 L 102.820312 75.1875 L 59.527344 121.832031 Z M 26.597656 91.273438 " clip-rule="nonzero"/></clipPath><clipPath id="9c208a8295"><path d="M 26.597656 91.273438 L 69.894531 44.625 L 102.820312 75.1875 L 59.527344 121.832031 Z M 26.597656 91.273438 " clip-rule="nonzero"/></clipPath><clipPath id="024a471209"><path d="M 26.597656 91.273438 L 69.894531 44.625 L 102.820312 75.1875 L 59.527344 121.832031 Z M 26.597656 91.273438 " clip-rule="nonzero"/></clipPath><clipPath id="913ddebe59"><path d="M 55 56 L 69 56 L 69 62 L 55 62 Z M 55 56 " clip-rule="nonzero"/></clipPath><clipPath id="e0d29b74ae"><path d="M 26.597656 91.273438 L 69.894531 44.625 L 102.820312 75.1875 L 59.527344 121.832031 Z M 26.597656 91.273438 " clip-rule="nonzero"/></clipPath><clipPath id="40d66d9214"><path d="M 26.597656 91.273438 L 69.894531 44.625 L 102.820312 75.1875 L 59.527344 121.832031 Z M 26.597656 91.273438 " clip-rule="nonzero"/></clipPath><clipPath id="17d5fcab05"><path d="M 26.597656 91.273438 L 69.894531 44.625 L 102.820312 75.1875 L 59.527344 121.832031 Z M 26.597656 91.273438 " clip-rule="nonzero"/></clipPath><clipPath id="f03782d9d8"><path d="M 66 60 L 70 60 L 70 67 L 66 67 Z M 66 60 " clip-rule="nonzero"/></clipPath><clipPath id="44fc214cc9"><path d="M 26.597656 91.273438 L 69.894531 44.625 L 102.820312 75.1875 L 59.527344 121.832031 Z M 26.597656 91.273438 " clip-rule="nonzero"/></clipPath><clipPath id="b471568f10"><path d="M 26.597656 91.273438 L 69.894531 44.625 L 102.820312 75.1875 L 59.527344 121.832031 Z M 26.597656 91.273438 " clip-rule="nonzero"/></clipPath><clipPath id="3191c5fc5e"><path d="M 26.597656 91.273438 L 69.894531 44.625 L 102.820312 75.1875 L 59.527344 121.832031 Z M 26.597656 91.273438 " clip-rule="nonzero"/></clipPath><clipPath id="6e783ed29b"><path d="M 56 86 L 71 86 L 71 97 L 56 97 Z M 56 86 " clip-rule="nonzero"/></clipPath><clipPath id="3e03e601e8"><path d="M 26.597656 91.273438 L 69.894531 44.625 L 102.820312 75.1875 L 59.527344 121.832031 Z M 26.597656 91.273438 " clip-rule="nonzero"/></clipPath><clipPath id="81aa4ec825"><path d="M 26.597656 91.273438 L 69.894531 44.625 L 102.820312 75.1875 L 59.527344 121.832031 Z M 26.597656 91.273438 " clip-rule="nonzero"/></clipPath><clipPath id="b540b706a3"><path d="M 26.597656 91.273438 L 69.894531 44.625 L 102.820312 75.1875 L 59.527344 121.832031 Z M 26.597656 91.273438 " clip-rule="nonzero"/></clipPath><clipPath id="c00a37d207"><path d="M 56 64 L 67 64 L 67 74 L 56 74 Z M 56 64 " clip-rule="nonzero"/></clipPath><clipPath id="144c7a9ddf"><path d="M 26.597656 91.273438 L 69.894531 44.625 L 102.820312 75.1875 L 59.527344 121.832031 Z M 26.597656 91.273438 " clip-rule="nonzero"/></clipPath><clipPath id="3b343ddca1"><path d="M 26.597656 91.273438 L 69.894531 44.625 L 102.820312 75.1875 L 59.527344 121.832031 Z M 26.597656 91.273438 " clip-rule="nonzero"/></clipPath><clipPath id="ec61dcf0fe"><path d="M 26.597656 91.273438 L 69.894531 44.625 L 102.820312 75.1875 L 59.527344 121.832031 Z M 26.597656 91.273438 " clip-rule="nonzero"/></clipPath><clipPath id="2a1a6e10d7"><path d="M 68 56 L 71 56 L 71 59 L 68 59 Z M 68 56 " clip-rule="nonzero"/></clipPath><clipPath id="a46cd7766e"><path d="M 26.597656 91.273438 L 69.894531 44.625 L 102.820312 75.1875 L 59.527344 121.832031 Z M 26.597656 91.273438 " clip-rule="nonzero"/></clipPath><clipPath id="da8d6488b0"><path d="M 26.597656 91.273438 L 69.894531 44.625 L 102.820312 75.1875 L 59.527344 121.832031 Z M 26.597656 91.273438 " clip-rule="nonzero"/></clipPath><clipPath id="9eb60aba19"><path d="M 26.597656 91.273438 L 69.894531 44.625 L 102.820312 75.1875 L 59.527344 121.832031 Z M 26.597656 91.273438 " clip-rule="nonzero"/></clipPath><clipPath id="3060d3cae3"><path d="M 76 55 L 78 55 L 78 57 L 76 57 Z M 76 55 " clip-rule="nonzero"/></clipPath><clipPath id="61f70fb88f"><path d="M 26.597656 91.273438 L 69.894531 44.625 L 102.820312 75.1875 L 59.527344 121.832031 Z M 26.597656 91.273438 " clip-rule="nonzero"/></clipPath><clipPath id="bec4c86c5e"><path d="M 26.597656 91.273438 L 69.894531 44.625 L 102.820312 75.1875 L 59.527344 121.832031 Z M 26.597656 91.273438 " clip-rule="nonzero"/></clipPath><clipPath id="d752b55ec8"><path d="M 26.597656 91.273438 L 69.894531 44.625 L 102.820312 75.1875 L 59.527344 121.832031 Z M 26.597656 91.273438 " clip-rule="nonzero"/></clipPath><clipPath id="235f935891"><path d="M 74 54 L 76 54 L 76 56 L 74 56 Z M 74 54 " clip-rule="nonzero"/></clipPath><clipPath id="58a2a4bb77"><path d="M 26.597656 91.273438 L 69.894531 44.625 L 102.820312 75.1875 L 59.527344 121.832031 Z M 26.597656 91.273438 " clip-rule="nonzero"/></clipPath><clipPath id="57271451a6"><path d="M 26.597656 91.273438 L 69.894531 44.625 L 102.820312 75.1875 L 59.527344 121.832031 Z M 26.597656 91.273438 " clip-rule="nonzero"/></clipPath><clipPath id="d7d226627b"><path d="M 26.597656 91.273438 L 69.894531 44.625 L 102.820312 75.1875 L 59.527344 121.832031 Z M 26.597656 91.273438 " clip-rule="nonzero"/></clipPath><clipPath id="ff420a5555"><path d="M 70 56 L 76 56 L 76 57 L 70 57 Z M 70 56 " clip-rule="nonzero"/></clipPath><clipPath id="c64450392a"><path d="M 26.597656 91.273438 L 69.894531 44.625 L 102.820312 75.1875 L 59.527344 121.832031 Z M 26.597656 91.273438 " clip-rule="nonzero"/></clipPath><clipPath id="f180d59bcb"><path d="M 26.597656 91.273438 L 69.894531 44.625 L 102.820312 75.1875 L 59.527344 121.832031 Z M 26.597656 91.273438 " clip-rule="nonzero"/></clipPath><clipPath id="cb13220afd"><path d="M 26.597656 91.273438 L 69.894531 44.625 L 102.820312 75.1875 L 59.527344 121.832031 Z M 26.597656 91.273438 " clip-rule="nonzero"/></clipPath><clipPath id="db28995732"><path d="M 75 57 L 78 57 L 78 59 L 75 59 Z M 75 57 " clip-rule="nonzero"/></clipPath><clipPath id="6f62967ed9"><path d="M 26.597656 91.273438 L 69.894531 44.625 L 102.820312 75.1875 L 59.527344 121.832031 Z M 26.597656 91.273438 " clip-rule="nonzero"/></clipPath><clipPath id="d2cecc3249"><path d="M 26.597656 91.273438 L 69.894531 44.625 L 102.820312 75.1875 L 59.527344 121.832031 Z M 26.597656 91.273438 " clip-rule="nonzero"/></clipPath><clipPath id="5a81829882"><path d="M 26.597656 91.273438 L 69.894531 44.625 L 102.820312 75.1875 L 59.527344 121.832031 Z M 26.597656 91.273438 " clip-rule="nonzero"/></clipPath><clipPath id="04b0a0991f"><path d="M 78 55 L 80 55 L 80 57 L 78 57 Z M 78 55 " clip-rule="nonzero"/></clipPath><clipPath id="6b0c59fe94"><path d="M 26.597656 91.273438 L 69.894531 44.625 L 102.820312 75.1875 L 59.527344 121.832031 Z M 26.597656 91.273438 " clip-rule="nonzero"/></clipPath><clipPath id="f524a1c88c"><path d="M 26.597656 91.273438 L 69.894531 44.625 L 102.820312 75.1875 L 59.527344 121.832031 Z M 26.597656 91.273438 " clip-rule="nonzero"/></clipPath><clipPath id="80051c07c2"><path d="M 26.597656 91.273438 L 69.894531 44.625 L 102.820312 75.1875 L 59.527344 121.832031 Z M 26.597656 91.273438 " clip-rule="nonzero"/></clipPath><clipPath id="5ecff3a680"><path d="M 74 57 L 76 57 L 76 59 L 74 59 Z M 74 57 " clip-rule="nonzero"/></clipPath><clipPath id="2c9652ded2"><path d="M 26.597656 91.273438 L 69.894531 44.625 L 102.820312 75.1875 L 59.527344 121.832031 Z M 26.597656 91.273438 " clip-rule="nonzero"/></clipPath><clipPath id="d2d090c3d8"><path d="M 26.597656 91.273438 L 69.894531 44.625 L 102.820312 75.1875 L 59.527344 121.832031 Z M 26.597656 91.273438 " clip-rule="nonzero"/></clipPath><clipPath id="6ed5c1e12e"><path d="M 26.597656 91.273438 L 69.894531 44.625 L 102.820312 75.1875 L 59.527344 121.832031 Z M 26.597656 91.273438 " clip-rule="nonzero"/></clipPath><clipPath id="e4a978d642"><path d="M 70 56 L 80 56 L 80 58 L 70 58 Z M 70 56 " clip-rule="nonzero"/></clipPath><clipPath id="709eafb872"><path d="M 26.597656 91.273438 L 69.894531 44.625 L 102.820312 75.1875 L 59.527344 121.832031 Z M 26.597656 91.273438 " clip-rule="nonzero"/></clipPath><clipPath id="8c5619261f"><path d="M 26.597656 91.273438 L 69.894531 44.625 L 102.820312 75.1875 L 59.527344 121.832031 Z M 26.597656 91.273438 " clip-rule="nonzero"/></clipPath><clipPath id="1fcfa79175"><path d="M 26.597656 91.273438 L 69.894531 44.625 L 102.820312 75.1875 L 59.527344 121.832031 Z M 26.597656 91.273438 " clip-rule="nonzero"/></clipPath><clipPath id="6b4fd139b6"><path d="M 70 57 L 76 57 L 76 58 L 70 58 Z M 70 57 " clip-rule="nonzero"/></clipPath><clipPath id="f289f88c8a"><path d="M 26.597656 91.273438 L 69.894531 44.625 L 102.820312 75.1875 L 59.527344 121.832031 Z M 26.597656 91.273438 " clip-rule="nonzero"/></clipPath><clipPath id="19612039c7"><path d="M 26.597656 91.273438 L 69.894531 44.625 L 102.820312 75.1875 L 59.527344 121.832031 Z M 26.597656 91.273438 " clip-rule="nonzero"/></clipPath><clipPath id="a2d1217176"><path d="M 26.597656 91.273438 L 69.894531 44.625 L 102.820312 75.1875 L 59.527344 121.832031 Z M 26.597656 91.273438 " clip-rule="nonzero"/></clipPath><clipPath id="a9a88d4762"><path d="M 70 58 L 74 58 L 74 59 L 70 59 Z M 70 58 " clip-rule="nonzero"/></clipPath><clipPath id="58fa8ffd92"><path d="M 26.597656 91.273438 L 69.894531 44.625 L 102.820312 75.1875 L 59.527344 121.832031 Z M 26.597656 91.273438 " clip-rule="nonzero"/></clipPath><clipPath id="424e69625e"><path d="M 26.597656 91.273438 L 69.894531 44.625 L 102.820312 75.1875 L 59.527344 121.832031 Z M 26.597656 91.273438 " clip-rule="nonzero"/></clipPath><clipPath id="e313d19ca3"><path d="M 26.597656 91.273438 L 69.894531 44.625 L 102.820312 75.1875 L 59.527344 121.832031 Z M 26.597656 91.273438 " clip-rule="nonzero"/></clipPath><clipPath id="de35d3bed1"><path d="M 73 59 L 75 59 L 75 60 L 73 60 Z M 73 59 " clip-rule="nonzero"/></clipPath><clipPath id="7ab0bc2a71"><path d="M 26.597656 91.273438 L 69.894531 44.625 L 102.820312 75.1875 L 59.527344 121.832031 Z M 26.597656 91.273438 " clip-rule="nonzero"/></clipPath><clipPath id="3a64d1e001"><path d="M 26.597656 91.273438 L 69.894531 44.625 L 102.820312 75.1875 L 59.527344 121.832031 Z M 26.597656 91.273438 " clip-rule="nonzero"/></clipPath><clipPath id="8d031d8c87"><path d="M 26.597656 91.273438 L 69.894531 44.625 L 102.820312 75.1875 L 59.527344 121.832031 Z M 26.597656 91.273438 " clip-rule="nonzero"/></clipPath><clipPath id="3e8dda7700"><path d="M 43 79 L 46 79 L 46 85 L 43 85 Z M 43 79 " clip-rule="nonzero"/></clipPath><clipPath id="ca9d5e7822"><path d="M 26.597656 91.273438 L 69.894531 44.625 L 102.820312 75.1875 L 59.527344 121.832031 Z M 26.597656 91.273438 " clip-rule="nonzero"/></clipPath><clipPath id="329bd58ecd"><path d="M 26.597656 91.273438 L 69.894531 44.625 L 102.820312 75.1875 L 59.527344 121.832031 Z M 26.597656 91.273438 " clip-rule="nonzero"/></clipPath><clipPath id="f672e430be"><path d="M 26.597656 91.273438 L 69.894531 44.625 L 102.820312 75.1875 L 59.527344 121.832031 Z M 26.597656 91.273438 " clip-rule="nonzero"/></clipPath><clipPath id="fef6f13c53"><path d="M 39 90 L 40 90 L 40 100 L 39 100 Z M 39 90 " clip-rule="nonzero"/></clipPath><clipPath id="99d12ee8c8"><path d="M 26.597656 91.273438 L 69.894531 44.625 L 102.820312 75.1875 L 59.527344 121.832031 Z M 26.597656 91.273438 " clip-rule="nonzero"/></clipPath><clipPath id="3e67b700fd"><path d="M 26.597656 91.273438 L 69.894531 44.625 L 102.820312 75.1875 L 59.527344 121.832031 Z M 26.597656 91.273438 " clip-rule="nonzero"/></clipPath><clipPath id="e29dc417b4"><path d="M 26.597656 91.273438 L 69.894531 44.625 L 102.820312 75.1875 L 59.527344 121.832031 Z M 26.597656 91.273438 " clip-rule="nonzero"/></clipPath><clipPath id="67f20e82ea"><path d="M 38 91 L 40 91 L 40 96 L 38 96 Z M 38 91 " clip-rule="nonzero"/></clipPath><clipPath id="f7004f560b"><path d="M 26.597656 91.273438 L 69.894531 44.625 L 102.820312 75.1875 L 59.527344 121.832031 Z M 26.597656 91.273438 " clip-rule="nonzero"/></clipPath><clipPath id="962091cb93"><path d="M 26.597656 91.273438 L 69.894531 44.625 L 102.820312 75.1875 L 59.527344 121.832031 Z M 26.597656 91.273438 " clip-rule="nonzero"/></clipPath><clipPath id="3351e85823"><path d="M 26.597656 91.273438 L 69.894531 44.625 L 102.820312 75.1875 L 59.527344 121.832031 Z M 26.597656 91.273438 " clip-rule="nonzero"/></clipPath><clipPath id="013289e9ee"><path d="M 40 90 L 41 90 L 41 94 L 40 94 Z M 40 90 " clip-rule="nonzero"/></clipPath><clipPath id="a7b3c8e963"><path d="M 26.597656 91.273438 L 69.894531 44.625 L 102.820312 75.1875 L 59.527344 121.832031 Z M 26.597656 91.273438 " clip-rule="nonzero"/></clipPath><clipPath id="c9607d95c5"><path d="M 26.597656 91.273438 L 69.894531 44.625 L 102.820312 75.1875 L 59.527344 121.832031 Z M 26.597656 91.273438 " clip-rule="nonzero"/></clipPath><clipPath id="c08d96cb1a"><path d="M 26.597656 91.273438 L 69.894531 44.625 L 102.820312 75.1875 L 59.527344 121.832031 Z M 26.597656 91.273438 " clip-rule="nonzero"/></clipPath><clipPath id="b73bd182f5"><path d="M 39 90 L 41 90 L 41 96 L 39 96 Z M 39 90 " clip-rule="nonzero"/></clipPath><clipPath id="e744979f04"><path d="M 26.597656 91.273438 L 69.894531 44.625 L 102.820312 75.1875 L 59.527344 121.832031 Z M 26.597656 91.273438 " clip-rule="nonzero"/></clipPath><clipPath id="5d8b37b1e1"><path d="M 26.597656 91.273438 L 69.894531 44.625 L 102.820312 75.1875 L 59.527344 121.832031 Z M 26.597656 91.273438 " clip-rule="nonzero"/></clipPath><clipPath id="30a38714d3"><path d="M 26.597656 91.273438 L 69.894531 44.625 L 102.820312 75.1875 L 59.527344 121.832031 Z M 26.597656 91.273438 " clip-rule="nonzero"/></clipPath><clipPath id="0fe2f460d5"><path d="M 37 96 L 39 96 L 39 98 L 37 98 Z M 37 96 " clip-rule="nonzero"/></clipPath><clipPath id="5addae6b81"><path d="M 26.597656 91.273438 L 69.894531 44.625 L 102.820312 75.1875 L 59.527344 121.832031 Z M 26.597656 91.273438 " clip-rule="nonzero"/></clipPath><clipPath id="161cfa50a7"><path d="M 26.597656 91.273438 L 69.894531 44.625 L 102.820312 75.1875 L 59.527344 121.832031 Z M 26.597656 91.273438 " clip-rule="nonzero"/></clipPath><clipPath id="5b52a8f124"><path d="M 26.597656 91.273438 L 69.894531 44.625 L 102.820312 75.1875 L 59.527344 121.832031 Z M 26.597656 91.273438 " clip-rule="nonzero"/></clipPath><clipPath id="3568c044e2"><path d="M 38 98 L 40 98 L 40 100 L 38 100 Z M 38 98 " clip-rule="nonzero"/></clipPath><clipPath id="5fcfccdc59"><path d="M 26.597656 91.273438 L 69.894531 44.625 L 102.820312 75.1875 L 59.527344 121.832031 Z M 26.597656 91.273438 " clip-rule="nonzero"/></clipPath><clipPath id="6895e1325f"><path d="M 26.597656 91.273438 L 69.894531 44.625 L 102.820312 75.1875 L 59.527344 121.832031 Z M 26.597656 91.273438 " clip-rule="nonzero"/></clipPath><clipPath id="61b67d94c0"><path d="M 26.597656 91.273438 L 69.894531 44.625 L 102.820312 75.1875 L 59.527344 121.832031 Z M 26.597656 91.273438 " clip-rule="nonzero"/></clipPath><clipPath id="0b5a65d0cc"><path d="M 37 94 L 39 94 L 39 96 L 37 96 Z M 37 94 " clip-rule="nonzero"/></clipPath><clipPath id="06180544cf"><path d="M 26.597656 91.273438 L 69.894531 44.625 L 102.820312 75.1875 L 59.527344 121.832031 Z M 26.597656 91.273438 " clip-rule="nonzero"/></clipPath><clipPath id="0b526c0916"><path d="M 26.597656 91.273438 L 69.894531 44.625 L 102.820312 75.1875 L 59.527344 121.832031 Z M 26.597656 91.273438 " clip-rule="nonzero"/></clipPath><clipPath id="ecab270388"><path d="M 26.597656 91.273438 L 69.894531 44.625 L 102.820312 75.1875 L 59.527344 121.832031 Z M 26.597656 91.273438 " clip-rule="nonzero"/></clipPath><clipPath id="ad5c15e675"><path d="M 40 95 L 42 95 L 42 98 L 40 98 Z M 40 95 " clip-rule="nonzero"/></clipPath><clipPath id="5950d66fcd"><path d="M 26.597656 91.273438 L 69.894531 44.625 L 102.820312 75.1875 L 59.527344 121.832031 Z M 26.597656 91.273438 " clip-rule="nonzero"/></clipPath><clipPath id="161379383b"><path d="M 26.597656 91.273438 L 69.894531 44.625 L 102.820312 75.1875 L 59.527344 121.832031 Z M 26.597656 91.273438 " clip-rule="nonzero"/></clipPath><clipPath id="dd9d746042"><path d="M 26.597656 91.273438 L 69.894531 44.625 L 102.820312 75.1875 L 59.527344 121.832031 Z M 26.597656 91.273438 " clip-rule="nonzero"/></clipPath><clipPath id="e651f7e15f"><path d="M 41 93 L 43 93 L 43 95 L 41 95 Z M 41 93 " clip-rule="nonzero"/></clipPath><clipPath id="31cb07ebd3"><path d="M 26.597656 91.273438 L 69.894531 44.625 L 102.820312 75.1875 L 59.527344 121.832031 Z M 26.597656 91.273438 " clip-rule="nonzero"/></clipPath><clipPath id="c9982f9536"><path d="M 26.597656 91.273438 L 69.894531 44.625 L 102.820312 75.1875 L 59.527344 121.832031 Z M 26.597656 91.273438 " clip-rule="nonzero"/></clipPath><clipPath id="eea28e8170"><path d="M 26.597656 91.273438 L 69.894531 44.625 L 102.820312 75.1875 L 59.527344 121.832031 Z M 26.597656 91.273438 " clip-rule="nonzero"/></clipPath><clipPath id="753cca2c49"><path d="M 40 94 L 42 94 L 42 96 L 40 96 Z M 40 94 " clip-rule="nonzero"/></clipPath><clipPath id="0a23fdc364"><path d="M 26.597656 91.273438 L 69.894531 44.625 L 102.820312 75.1875 L 59.527344 121.832031 Z M 26.597656 91.273438 " clip-rule="nonzero"/></clipPath><clipPath id="e2e8e7f691"><path d="M 26.597656 91.273438 L 69.894531 44.625 L 102.820312 75.1875 L 59.527344 121.832031 Z M 26.597656 91.273438 " clip-rule="nonzero"/></clipPath><clipPath id="820b005424"><path d="M 26.597656 91.273438 L 69.894531 44.625 L 102.820312 75.1875 L 59.527344 121.832031 Z M 26.597656 91.273438 " clip-rule="nonzero"/></clipPath><clipPath id="e77e69a8a8"><path d="M 38 88 L 41 88 L 41 91 L 38 91 Z M 38 88 " clip-rule="nonzero"/></clipPath><clipPath id="ac78889b9e"><path d="M 26.597656 91.273438 L 69.894531 44.625 L 102.820312 75.1875 L 59.527344 121.832031 Z M 26.597656 91.273438 " clip-rule="nonzero"/></clipPath><clipPath id="495c1133a9"><path d="M 26.597656 91.273438 L 69.894531 44.625 L 102.820312 75.1875 L 59.527344 121.832031 Z M 26.597656 91.273438 " clip-rule="nonzero"/></clipPath><clipPath id="ff7688b48c"><path d="M 26.597656 91.273438 L 69.894531 44.625 L 102.820312 75.1875 L 59.527344 121.832031 Z M 26.597656 91.273438 " clip-rule="nonzero"/></clipPath><clipPath id="23ed15c05e"><path d="M 38 75 L 44 75 L 44 89 L 38 89 Z M 38 75 " clip-rule="nonzero"/></clipPath><clipPath id="266edd7a99"><path d="M 26.597656 91.273438 L 69.894531 44.625 L 102.820312 75.1875 L 59.527344 121.832031 Z M 26.597656 91.273438 " clip-rule="nonzero"/></clipPath><clipPath id="aa02911dcf"><path d="M 26.597656 91.273438 L 69.894531 44.625 L 102.820312 75.1875 L 59.527344 121.832031 Z M 26.597656 91.273438 " clip-rule="nonzero"/></clipPath><clipPath id="33977b1279"><path d="M 26.597656 91.273438 L 69.894531 44.625 L 102.820312 75.1875 L 59.527344 121.832031 Z M 26.597656 91.273438 " clip-rule="nonzero"/></clipPath><clipPath id="f8ebbe8440"><path d="M 42 86 L 50 86 L 50 90 L 42 90 Z M 42 86 " clip-rule="nonzero"/></clipPath><clipPath id="5b0ae92c21"><path d="M 26.597656 91.273438 L 69.894531 44.625 L 102.820312 75.1875 L 59.527344 121.832031 Z M 26.597656 91.273438 " clip-rule="nonzero"/></clipPath><clipPath id="3aeffdbb1a"><path d="M 26.597656 91.273438 L 69.894531 44.625 L 102.820312 75.1875 L 59.527344 121.832031 Z M 26.597656 91.273438 " clip-rule="nonzero"/></clipPath><clipPath id="5b95f074d0"><path d="M 26.597656 91.273438 L 69.894531 44.625 L 102.820312 75.1875 L 59.527344 121.832031 Z M 26.597656 91.273438 " clip-rule="nonzero"/></clipPath><clipPath id="3cdc70800b"><path d="M 45 73 L 78 73 L 78 89 L 45 89 Z M 45 73 " clip-rule="nonzero"/></clipPath><clipPath id="bde8d030d6"><path d="M 26.597656 91.273438 L 69.894531 44.625 L 102.820312 75.1875 L 59.527344 121.832031 Z M 26.597656 91.273438 " clip-rule="nonzero"/></clipPath><clipPath id="47447f4240"><path d="M 26.597656 91.273438 L 69.894531 44.625 L 102.820312 75.1875 L 59.527344 121.832031 Z M 26.597656 91.273438 " clip-rule="nonzero"/></clipPath><clipPath id="47e14c3f03"><path d="M 26.597656 91.273438 L 69.894531 44.625 L 102.820312 75.1875 L 59.527344 121.832031 Z M 26.597656 91.273438 " clip-rule="nonzero"/></clipPath><clipPath id="30efe5891b"><path d="M 59 74 L 78 74 L 78 88 L 59 88 Z M 59 74 " clip-rule="nonzero"/></clipPath><clipPath id="eaa7da4fee"><path d="M 26.597656 91.273438 L 69.894531 44.625 L 102.820312 75.1875 L 59.527344 121.832031 Z M 26.597656 91.273438 " clip-rule="nonzero"/></clipPath><clipPath id="b7a9ef67cc"><path d="M 26.597656 91.273438 L 69.894531 44.625 L 102.820312 75.1875 L 59.527344 121.832031 Z M 26.597656 91.273438 " clip-rule="nonzero"/></clipPath><clipPath id="d8f96cfc5d"><path d="M 26.597656 91.273438 L 69.894531 44.625 L 102.820312 75.1875 L 59.527344 121.832031 Z M 26.597656 91.273438 " clip-rule="nonzero"/></clipPath><clipPath id="8c1ca57e7e"><path d="M 67 83 L 69 83 L 69 86 L 67 86 Z M 67 83 " clip-rule="nonzero"/></clipPath><clipPath id="6e2d4e673a"><path d="M 26.597656 91.273438 L 69.894531 44.625 L 102.820312 75.1875 L 59.527344 121.832031 Z M 26.597656 91.273438 " clip-rule="nonzero"/></clipPath><clipPath id="e1341afa98"><path d="M 26.597656 91.273438 L 69.894531 44.625 L 102.820312 75.1875 L 59.527344 121.832031 Z M 26.597656 91.273438 " clip-rule="nonzero"/></clipPath><clipPath id="6f582010aa"><path d="M 26.597656 91.273438 L 69.894531 44.625 L 102.820312 75.1875 L 59.527344 121.832031 Z M 26.597656 91.273438 " clip-rule="nonzero"/></clipPath><clipPath id="32c0499220"><path d="M 64 80 L 66 80 L 66 82 L 64 82 Z M 64 80 " clip-rule="nonzero"/></clipPath><clipPath id="1b33d398a5"><path d="M 26.597656 91.273438 L 69.894531 44.625 L 102.820312 75.1875 L 59.527344 121.832031 Z M 26.597656 91.273438 " clip-rule="nonzero"/></clipPath><clipPath id="cbea2f5172"><path d="M 26.597656 91.273438 L 69.894531 44.625 L 102.820312 75.1875 L 59.527344 121.832031 Z M 26.597656 91.273438 " clip-rule="nonzero"/></clipPath><clipPath id="72e0b48f8d"><path d="M 26.597656 91.273438 L 69.894531 44.625 L 102.820312 75.1875 L 59.527344 121.832031 Z M 26.597656 91.273438 " clip-rule="nonzero"/></clipPath><clipPath id="d92a982a2a"><path d="M 65 82 L 67 82 L 67 84 L 65 84 Z M 65 82 " clip-rule="nonzero"/></clipPath><clipPath id="99725f7aea"><path d="M 26.597656 91.273438 L 69.894531 44.625 L 102.820312 75.1875 L 59.527344 121.832031 Z M 26.597656 91.273438 " clip-rule="nonzero"/></clipPath><clipPath id="8eb93fb061"><path d="M 26.597656 91.273438 L 69.894531 44.625 L 102.820312 75.1875 L 59.527344 121.832031 Z M 26.597656 91.273438 " clip-rule="nonzero"/></clipPath><clipPath id="15f956b06c"><path d="M 26.597656 91.273438 L 69.894531 44.625 L 102.820312 75.1875 L 59.527344 121.832031 Z M 26.597656 91.273438 " clip-rule="nonzero"/></clipPath><clipPath id="afc110121a"><path d="M 63 82 L 64 82 L 64 83 L 63 83 Z M 63 82 " clip-rule="nonzero"/></clipPath><clipPath id="a2c897ca9f"><path d="M 26.597656 91.273438 L 69.894531 44.625 L 102.820312 75.1875 L 59.527344 121.832031 Z M 26.597656 91.273438 " clip-rule="nonzero"/></clipPath><clipPath id="62c0ecd3b8"><path d="M 26.597656 91.273438 L 69.894531 44.625 L 102.820312 75.1875 L 59.527344 121.832031 Z M 26.597656 91.273438 " clip-rule="nonzero"/></clipPath><clipPath id="94eef3fb70"><path d="M 26.597656 91.273438 L 69.894531 44.625 L 102.820312 75.1875 L 59.527344 121.832031 Z M 26.597656 91.273438 " clip-rule="nonzero"/></clipPath><clipPath id="596136514d"><path d="M 64 83 L 65 83 L 65 85 L 64 85 Z M 64 83 " clip-rule="nonzero"/></clipPath><clipPath id="f3cc1e3fbf"><path d="M 26.597656 91.273438 L 69.894531 44.625 L 102.820312 75.1875 L 59.527344 121.832031 Z M 26.597656 91.273438 " clip-rule="nonzero"/></clipPath><clipPath id="c21f23128a"><path d="M 26.597656 91.273438 L 69.894531 44.625 L 102.820312 75.1875 L 59.527344 121.832031 Z M 26.597656 91.273438 " clip-rule="nonzero"/></clipPath><clipPath id="26a818fb6b"><path d="M 26.597656 91.273438 L 69.894531 44.625 L 102.820312 75.1875 L 59.527344 121.832031 Z M 26.597656 91.273438 " clip-rule="nonzero"/></clipPath><clipPath id="b470240c76"><path d="M 69 82 L 72 82 L 72 84 L 69 84 Z M 69 82 " clip-rule="nonzero"/></clipPath><clipPath id="943fb83404"><path d="M 26.597656 91.273438 L 69.894531 44.625 L 102.820312 75.1875 L 59.527344 121.832031 Z M 26.597656 91.273438 " clip-rule="nonzero"/></clipPath><clipPath id="b08433f925"><path d="M 26.597656 91.273438 L 69.894531 44.625 L 102.820312 75.1875 L 59.527344 121.832031 Z M 26.597656 91.273438 " clip-rule="nonzero"/></clipPath><clipPath id="f6814964ab"><path d="M 26.597656 91.273438 L 69.894531 44.625 L 102.820312 75.1875 L 59.527344 121.832031 Z M 26.597656 91.273438 " clip-rule="nonzero"/></clipPath><clipPath id="28a8aa9b4a"><path d="M 48 59 L 90 59 L 90 113 L 48 113 Z M 48 59 " clip-rule="nonzero"/></clipPath><clipPath id="7fa7499da6"><path d="M 26.597656 91.273438 L 69.894531 44.625 L 102.820312 75.1875 L 59.527344 121.832031 Z M 26.597656 91.273438 " clip-rule="nonzero"/></clipPath><clipPath id="98a42adf18"><path d="M 26.597656 91.273438 L 69.894531 44.625 L 102.820312 75.1875 L 59.527344 121.832031 Z M 26.597656 91.273438 " clip-rule="nonzero"/></clipPath><clipPath id="d3ff206acc"><path d="M 26.597656 91.273438 L 69.894531 44.625 L 102.820312 75.1875 L 59.527344 121.832031 Z M 26.597656 91.273438 " clip-rule="nonzero"/></clipPath><clipPath id="b4f25c764e"><path d="M 83 63 L 88 63 L 88 81 L 83 81 Z M 83 63 " clip-rule="nonzero"/></clipPath><clipPath id="5a019081f9"><path d="M 26.597656 91.273438 L 69.894531 44.625 L 102.820312 75.1875 L 59.527344 121.832031 Z M 26.597656 91.273438 " clip-rule="nonzero"/></clipPath><clipPath id="b3855eff56"><path d="M 26.597656 91.273438 L 69.894531 44.625 L 102.820312 75.1875 L 59.527344 121.832031 Z M 26.597656 91.273438 " clip-rule="nonzero"/></clipPath><clipPath id="95d4d4df75"><path d="M 26.597656 91.273438 L 69.894531 44.625 L 102.820312 75.1875 L 59.527344 121.832031 Z M 26.597656 91.273438 " clip-rule="nonzero"/></clipPath><clipPath id="f0631084df"><path d="M 51 101 L 57 101 L 57 107 L 51 107 Z M 51 101 " clip-rule="nonzero"/></clipPath><clipPath id="d445ff4e36"><path d="M 26.597656 91.273438 L 69.894531 44.625 L 102.820312 75.1875 L 59.527344 121.832031 Z M 26.597656 91.273438 " clip-rule="nonzero"/></clipPath><clipPath id="f82e1cb410"><path d="M 26.597656 91.273438 L 69.894531 44.625 L 102.820312 75.1875 L 59.527344 121.832031 Z M 26.597656 91.273438 " clip-rule="nonzero"/></clipPath><clipPath id="98cb9fe90f"><path d="M 26.597656 91.273438 L 69.894531 44.625 L 102.820312 75.1875 L 59.527344 121.832031 Z M 26.597656 91.273438 " clip-rule="nonzero"/></clipPath><clipPath id="af6642d9de"><path d="M 80 60 L 84 60 L 84 79 L 80 79 Z M 80 60 " clip-rule="nonzero"/></clipPath><clipPath id="3632c65552"><path d="M 26.597656 91.273438 L 69.894531 44.625 L 102.820312 75.1875 L 59.527344 121.832031 Z M 26.597656 91.273438 " clip-rule="nonzero"/></clipPath><clipPath id="8848499be1"><path d="M 26.597656 91.273438 L 69.894531 44.625 L 102.820312 75.1875 L 59.527344 121.832031 Z M 26.597656 91.273438 " clip-rule="nonzero"/></clipPath><clipPath id="0df1544993"><path d="M 26.597656 91.273438 L 69.894531 44.625 L 102.820312 75.1875 L 59.527344 121.832031 Z M 26.597656 91.273438 " clip-rule="nonzero"/></clipPath><clipPath id="c893cf9896"><path d="M 46 102 L 49 102 L 49 105 L 46 105 Z M 46 102 " clip-rule="nonzero"/></clipPath><clipPath id="edfffa297f"><path d="M 26.597656 91.273438 L 69.894531 44.625 L 102.820312 75.1875 L 59.527344 121.832031 Z M 26.597656 91.273438 " clip-rule="nonzero"/></clipPath><clipPath id="d5a0422d72"><path d="M 26.597656 91.273438 L 69.894531 44.625 L 102.820312 75.1875 L 59.527344 121.832031 Z M 26.597656 91.273438 " clip-rule="nonzero"/></clipPath><clipPath id="464852b376"><path d="M 26.597656 91.273438 L 69.894531 44.625 L 102.820312 75.1875 L 59.527344 121.832031 Z M 26.597656 91.273438 " clip-rule="nonzero"/></clipPath><clipPath id="398a9bb319"><path d="M 49 104 L 52 104 L 52 107 L 49 107 Z M 49 104 " clip-rule="nonzero"/></clipPath><clipPath id="9c722a0a13"><path d="M 26.597656 91.273438 L 69.894531 44.625 L 102.820312 75.1875 L 59.527344 121.832031 Z M 26.597656 91.273438 " clip-rule="nonzero"/></clipPath><clipPath id="418494429a"><path d="M 26.597656 91.273438 L 69.894531 44.625 L 102.820312 75.1875 L 59.527344 121.832031 Z M 26.597656 91.273438 " clip-rule="nonzero"/></clipPath><clipPath id="dbb358d012"><path d="M 26.597656 91.273438 L 69.894531 44.625 L 102.820312 75.1875 L 59.527344 121.832031 Z M 26.597656 91.273438 " clip-rule="nonzero"/></clipPath><clipPath id="17f1f16a0d"><path d="M 56 100 L 59 100 L 59 104 L 56 104 Z M 56 100 " clip-rule="nonzero"/></clipPath><clipPath id="b5379a073c"><path d="M 26.597656 91.273438 L 69.894531 44.625 L 102.820312 75.1875 L 59.527344 121.832031 Z M 26.597656 91.273438 " clip-rule="nonzero"/></clipPath><clipPath id="e78059dfde"><path d="M 26.597656 91.273438 L 69.894531 44.625 L 102.820312 75.1875 L 59.527344 121.832031 Z M 26.597656 91.273438 " clip-rule="nonzero"/></clipPath><clipPath id="87869b45f6"><path d="M 26.597656 91.273438 L 69.894531 44.625 L 102.820312 75.1875 L 59.527344 121.832031 Z M 26.597656 91.273438 " clip-rule="nonzero"/></clipPath><clipPath id="addcee2006"><path d="M 80 82 L 83 82 L 83 84 L 80 84 Z M 80 82 " clip-rule="nonzero"/></clipPath><clipPath id="6decf0fedf"><path d="M 26.597656 91.273438 L 69.894531 44.625 L 102.820312 75.1875 L 59.527344 121.832031 Z M 26.597656 91.273438 " clip-rule="nonzero"/></clipPath><clipPath id="a1c9c25f36"><path d="M 26.597656 91.273438 L 69.894531 44.625 L 102.820312 75.1875 L 59.527344 121.832031 Z M 26.597656 91.273438 " clip-rule="nonzero"/></clipPath><clipPath id="ae18bb8d0a"><path d="M 26.597656 91.273438 L 69.894531 44.625 L 102.820312 75.1875 L 59.527344 121.832031 Z M 26.597656 91.273438 " clip-rule="nonzero"/></clipPath><clipPath id="c70c6a9de1"><path d="M 84 83 L 86 83 L 86 85 L 84 85 Z M 84 83 " clip-rule="nonzero"/></clipPath><clipPath id="5b5eb07ed7"><path d="M 26.597656 91.273438 L 69.894531 44.625 L 102.820312 75.1875 L 59.527344 121.832031 Z M 26.597656 91.273438 " clip-rule="nonzero"/></clipPath><clipPath id="777b0df90c"><path d="M 26.597656 91.273438 L 69.894531 44.625 L 102.820312 75.1875 L 59.527344 121.832031 Z M 26.597656 91.273438 " clip-rule="nonzero"/></clipPath><clipPath id="b77d7bd2b6"><path d="M 26.597656 91.273438 L 69.894531 44.625 L 102.820312 75.1875 L 59.527344 121.832031 Z M 26.597656 91.273438 " clip-rule="nonzero"/></clipPath><clipPath id="37df8e7099"><path d="M 81 85 L 84 85 L 84 88 L 81 88 Z M 81 85 " clip-rule="nonzero"/></clipPath><clipPath id="28a5f4c2c0"><path d="M 26.597656 91.273438 L 69.894531 44.625 L 102.820312 75.1875 L 59.527344 121.832031 Z M 26.597656 91.273438 " clip-rule="nonzero"/></clipPath><clipPath id="492eac1d87"><path d="M 26.597656 91.273438 L 69.894531 44.625 L 102.820312 75.1875 L 59.527344 121.832031 Z M 26.597656 91.273438 " clip-rule="nonzero"/></clipPath><clipPath id="7e25c348cc"><path d="M 26.597656 91.273438 L 69.894531 44.625 L 102.820312 75.1875 L 59.527344 121.832031 Z M 26.597656 91.273438 " clip-rule="nonzero"/></clipPath><clipPath id="e6dc16fbda"><path d="M 212 20 L 344 20 L 344 59 L 212 59 Z M 212 20 " clip-rule="nonzero"/></clipPath><clipPath id="542ea4063d"><path d="M 361.90625 40.230469 L 216.929688 77.714844 L 206.433594 37.121094 L 351.410156 -0.363281 Z M 361.90625 40.230469 " clip-rule="nonzero"/></clipPath><clipPath id="c8e1758578"><path d="M 361.90625 40.230469 L 216.929688 77.714844 L 206.433594 37.121094 L 351.410156 -0.363281 Z M 361.90625 40.230469 " clip-rule="nonzero"/></clipPath><clipPath id="0cdb1bac7d"><path d="M 361.90625 40.230469 L 216.929688 77.714844 L 206.433594 37.121094 L 351.410156 -0.363281 Z M 361.90625 40.230469 " clip-rule="nonzero"/></clipPath><clipPath id="56c965fdf5"><path d="M 344.648438 26.242188 L 212.628906 60.375 L 206.601562 37.078125 L 338.625 2.941406 Z M 344.648438 26.242188 " clip-rule="nonzero"/></clipPath><clipPath id="03e9441717"><path d="M 292 3 L 353 3 L 353 24 L 292 24 Z M 292 3 " clip-rule="nonzero"/></clipPath><clipPath id="5dbb09b324"><path d="M 361.90625 40.230469 L 216.929688 77.714844 L 206.433594 37.121094 L 351.410156 -0.363281 Z M 361.90625 40.230469 " clip-rule="nonzero"/></clipPath><clipPath id="f62414d1fb"><path d="M 361.90625 40.230469 L 216.929688 77.714844 L 206.433594 37.121094 L 351.410156 -0.363281 Z M 361.90625 40.230469 " clip-rule="nonzero"/></clipPath><clipPath id="f7ba7d7afc"><path d="M 361.90625 40.230469 L 216.929688 77.714844 L 206.433594 37.121094 L 351.410156 -0.363281 Z M 361.90625 40.230469 " clip-rule="nonzero"/></clipPath><clipPath id="9cb26ac46c"><path d="M 216 35 L 261 35 L 261 78 L 216 78 Z M 216 35 " clip-rule="nonzero"/></clipPath><clipPath id="3466a81388"><path d="M 361.90625 40.230469 L 216.929688 77.714844 L 206.433594 37.121094 L 351.410156 -0.363281 Z M 361.90625 40.230469 " clip-rule="nonzero"/></clipPath><clipPath id="bae33323ec"><path d="M 361.90625 40.230469 L 216.929688 77.714844 L 206.433594 37.121094 L 351.410156 -0.363281 Z M 361.90625 40.230469 " clip-rule="nonzero"/></clipPath><clipPath id="2a7ded985d"><path d="M 361.90625 40.230469 L 216.929688 77.714844 L 206.433594 37.121094 L 351.410156 -0.363281 Z M 361.90625 40.230469 " clip-rule="nonzero"/></clipPath><clipPath id="68cb18e81a"><path d="M 268.660156 64.339844 L 217.097656 77.671875 L 209.335938 47.644531 L 260.894531 34.316406 Z M 268.660156 64.339844 " clip-rule="nonzero"/></clipPath></defs><path fill="#38b6ff" d="M 224.054688 195.875 C 231.570312 195.875 237.671875 189.777344 237.671875 182.257812 L 237.671875 167.699219 C 237.671875 159.855469 240.324219 150.195312 244.226562 143.429688 C 248.8125 135.488281 253.800781 131.800781 263.136719 132.609375 C 270.511719 133.25 276.277344 139.527344 276.277344 146.9375 C 276.277344 154.042969 271.207031 160.015625 264.1875 161.152344 C 254.664062 162.695312 247.769531 170.777344 247.769531 180.429688 L 247.769531 222.21875 C 247.769531 225.90625 244.777344 228.90625 241.085938 228.90625 L 93.734375 228.90625 C 90.042969 228.90625 87.046875 225.910156 87.046875 222.21875 L 87.046875 180.429688 C 87.046875 170.777344 80.152344 162.695312 70.628906 161.152344 C 63.609375 160.015625 58.539062 154.042969 58.539062 146.933594 C 58.539062 139.527344 64.300781 133.238281 71.683594 132.609375 C 80.992188 131.820312 85.992188 135.472656 90.589844 143.425781 C 94.496094 150.195312 97.144531 159.851562 97.144531 167.699219 L 97.144531 182.257812 C 97.144531 189.777344 103.246094 195.875 110.761719 195.875 Z M 175.542969 147.0625 L 220.714844 91.113281 L 197.773438 91.144531 C 190.054688 93.019531 184.121094 99.472656 182.902344 107.324219 C 182.355469 110.84375 177.253906 110.84375 176.707031 107.324219 C 175.488281 99.472656 169.554688 93.019531 161.835938 91.144531 L 102.046875 91.113281 C 96.488281 91.113281 91.960938 95.636719 91.960938 101.199219 L 91.960938 134.449219 L 92.21875 134.765625 C 99.234375 143.28125 103.417969 156.871094 103.417969 167.699219 L 103.417969 182.257812 C 103.417969 186.3125 106.710938 189.601562 110.761719 189.601562 L 118.089844 189.601562 L 129.800781 174.234375 C 135.117188 167.261719 142.8125 163.417969 151.585938 163.417969 L 165.90625 163.417969 L 165.90625 154.804688 C 165.90625 150.527344 169.402344 147.0625 173.671875 147.0625 Z M 144.621094 110.414062 C 144.074219 106.898438 138.96875 106.894531 138.421875 110.414062 C 137.183594 118.414062 131.050781 124.96875 123.140625 126.699219 C 119.929688 127.402344 119.855469 132.082031 123.148438 132.832031 C 131.035156 134.625 137.183594 141.101562 138.421875 149.109375 C 138.96875 152.628906 144.074219 152.628906 144.621094 149.113281 C 145.859375 141.101562 152.007812 134.609375 159.898438 132.832031 C 163.167969 132.09375 163.144531 127.40625 159.90625 126.699219 C 151.996094 124.96875 145.855469 118.414062 144.621094 110.414062 Z M 242.859375 99.734375 L 202.757812 149.40625 C 204.078125 151.085938 204.921875 152.449219 204.921875 154.800781 L 204.921875 163.449219 L 205.808594 163.652344 C 210.25 164.664062 213.441406 168.613281 213.441406 173.183594 L 213.441406 189.601562 L 224.054688 189.601562 C 228.105469 189.601562 231.402344 186.3125 231.402344 182.257812 L 231.402344 167.699219 C 231.402344 156.828125 235.636719 143.199219 242.597656 134.765625 L 242.859375 134.449219 Z M 242.859375 99.734375 " fill-opacity="1" fill-rule="evenodd"/><g clip-path="url(#bf86bf882a)"><path fill="#1e81ce" d="M 258.027344 69.140625 L 196.042969 145.921875 L 185.988281 145.921875 L 251.945312 64.210938 C 252.589844 63.425781 253.527344 62.90625 254.566406 62.804688 C 258.0625 62.425781 260.171875 66.449219 258.027344 69.140625 Z M 241.71875 134.039062 L 241.71875 102.960938 L 204.214844 149.414062 C 205.367188 150.886719 206.0625 152.777344 206.0625 154.800781 L 206.0625 162.539062 C 210.933594 163.648438 214.582031 167.992188 214.582031 173.183594 L 214.582031 188.460938 L 224.054688 188.460938 C 227.476562 188.460938 230.261719 185.6875 230.261719 182.257812 L 230.261719 167.699219 C 230.261719 156.660156 234.546875 142.730469 241.71875 134.039062 Z M 263.035156 133.746094 C 254.78125 133.027344 249.945312 135.804688 245.214844 143.996094 C 240.789062 151.667969 238.808594 161.429688 238.808594 167.699219 L 238.808594 182.257812 C 238.808594 190.421875 232.1875 197.015625 224.054688 197.015625 L 110.761719 197.015625 C 102.628906 197.015625 96.003906 190.421875 96.003906 182.257812 L 96.003906 167.699219 C 96.003906 161.429688 94.03125 151.667969 89.601562 143.996094 C 84.761719 135.621094 79.835938 133.074219 71.777344 133.746094 C 64.996094 134.332031 59.675781 140.113281 59.675781 146.9375 C 59.675781 153.496094 64.359375 158.980469 70.808594 160.027344 C 80.878906 161.660156 88.1875 170.210938 88.1875 180.429688 L 88.1875 222.21875 C 88.1875 225.285156 90.679688 227.765625 93.734375 227.765625 L 241.085938 227.765625 C 244.136719 227.765625 246.628906 225.285156 246.628906 222.21875 L 246.628906 180.429688 C 246.628906 170.210938 253.9375 161.660156 264.007812 160.027344 C 270.460938 158.980469 275.136719 153.496094 275.136719 146.9375 C 275.136719 140.113281 269.820312 134.332031 263.035156 133.746094 Z M 226.304688 250.683594 L 226.304688 236.320312 L 234.125 236.320312 L 234.125 250.683594 Z M 108.507812 250.683594 L 100.691406 250.683594 L 100.691406 236.320312 L 108.507812 236.320312 Z M 197.164062 154.445312 C 197.347656 154.445312 197.511719 154.640625 197.511719 154.800781 L 197.511719 162.277344 L 173.316406 162.277344 L 173.316406 154.800781 C 173.316406 154.640625 173.484375 154.445312 173.671875 154.445312 Z M 128.269531 188.460938 L 135.703125 178.699219 C 139.625 173.542969 145.117188 170.832031 151.585938 170.832031 L 203.667969 170.832031 C 204.949219 170.832031 206.035156 171.910156 206.035156 173.183594 L 206.035156 188.460938 Z M 102.046875 92.253906 C 97.113281 92.253906 93.101562 96.269531 93.101562 101.199219 L 93.101562 134.039062 C 94.472656 135.703125 95.765625 137.597656 97.003906 139.71875 C 101.589844 147.6875 104.554688 158.65625 104.554688 167.699219 L 104.554688 182.257812 C 104.554688 185.6875 107.34375 188.460938 110.761719 188.460938 L 117.527344 188.460938 L 128.898438 173.542969 C 134.421875 166.261719 142.472656 162.277344 151.585938 162.277344 L 164.769531 162.277344 L 164.769531 154.800781 C 164.769531 149.90625 168.765625 145.921875 173.671875 145.921875 L 175 145.921875 L 218.328125 92.253906 L 198.042969 92.253906 C 190.789062 94.015625 185.179688 100.085938 184.027344 107.5 C 183.28125 112.296875 176.328125 112.296875 175.582031 107.5 C 174.429688 100.085938 168.824219 94.015625 161.566406 92.253906 Z M 179.804688 80.566406 C 177.878906 83.46875 175.410156 85.984375 172.550781 87.976562 C 175.410156 89.96875 177.878906 92.480469 179.804688 95.355469 C 181.730469 92.480469 184.199219 89.96875 187.058594 87.976562 C 184.199219 85.984375 181.730469 83.472656 179.804688 80.566406 Z M 317.296875 231.75 C 316.40625 232.371094 315.488281 232.988281 314.554688 233.609375 C 306.664062 238.996094 297.707031 245.101562 289.609375 243.011719 C 285.1875 241.902344 282.164062 239.292969 280.375 235.046875 C 274.824219 221.921875 282.335938 196.199219 289.65625 183.402344 C 297.523438 169.652344 307.097656 159.011719 316.753906 146.96875 C 345.464844 111.152344 337.363281 48.171875 286.683594 47.59375 C 277.507812 47.496094 268.558594 50.074219 260.027344 55.296875 C 254.894531 53 248.84375 54.449219 245.289062 58.855469 L 225.226562 83.699219 L 198.039062 83.699219 C 190.785156 81.902344 185.179688 75.832031 184.027344 68.453125 C 183.28125 63.65625 176.320312 63.65625 175.578125 68.453125 C 174.429688 75.832031 168.820312 81.902344 161.558594 83.699219 L 102.046875 83.699219 C 92.398438 83.699219 84.546875 91.535156 84.546875 101.199219 L 84.546875 127.25 C 80.640625 125.421875 76.199219 124.769531 71.046875 125.226562 C 59.878906 126.171875 51.128906 135.738281 51.128906 146.9375 C 51.128906 157.707031 58.832031 166.753906 69.449219 168.480469 C 75.355469 169.429688 79.636719 174.457031 79.636719 180.429688 L 79.636719 222.21875 C 79.636719 229.464844 85.113281 235.4375 92.140625 236.222656 L 92.140625 251.828125 C 92.140625 255.90625 95.46875 259.238281 99.558594 259.238281 L 109.636719 259.238281 C 113.730469 259.238281 117.058594 255.90625 117.058594 251.828125 L 117.058594 236.320312 L 217.753906 236.320312 L 217.753906 251.828125 C 217.753906 255.90625 221.085938 259.238281 225.175781 259.238281 L 235.253906 259.238281 C 239.34375 259.238281 242.675781 255.90625 242.675781 251.828125 L 242.675781 236.222656 C 249.699219 235.4375 255.179688 229.464844 255.179688 222.21875 L 255.179688 180.429688 C 255.179688 174.457031 259.457031 169.429688 265.363281 168.480469 C 275.980469 166.75 283.683594 157.707031 283.683594 146.9375 C 283.683594 135.738281 274.9375 126.171875 263.765625 125.226562 C 258.617188 124.769531 254.175781 125.421875 250.265625 127.25 L 250.265625 101.199219 C 250.265625 98.75 249.75 96.398438 248.78125 94.179688 L 264.679688 74.492188 C 267.667969 70.792969 268.25 65.84375 266.3125 61.53125 C 272.886719 57.875 279.675781 56.046875 286.585938 56.144531 C 306.261719 56.375 315.609375 67.441406 319.988281 76.710938 C 329.042969 95.84375 324.878906 123.167969 310.078125 141.613281 C 300.175781 153.976562 290.402344 164.878906 282.234375 179.15625 C 275.964844 190.125 264.816406 220.226562 272.5 238.375 C 276.085938 246.832031 283.933594 251.992188 293.003906 251.992188 C 303.855469 251.992188 313.605469 244.53125 322.039062 238.867188 C 324.003906 237.5625 324.535156 234.917969 323.222656 232.957031 C 321.914062 230.964844 319.261719 230.445312 317.296875 231.75 Z M 141.519531 122.386719 C 143.449219 125.257812 145.914062 127.773438 148.773438 129.761719 C 145.914062 131.753906 143.445312 134.269531 141.519531 137.171875 C 139.59375 134.269531 137.125 131.753906 134.265625 129.761719 C 137.125 127.773438 139.59375 125.257812 141.519531 122.386719 Z M 122.898438 133.941406 C 118.414062 132.894531 118.511719 126.542969 122.898438 125.585938 C 130.339844 123.953125 136.132812 117.78125 137.296875 110.242188 C 138.042969 105.441406 145.007812 105.445312 145.746094 110.242188 C 146.914062 117.78125 152.707031 123.953125 160.148438 125.585938 C 164.570312 126.550781 164.601562 132.921875 160.148438 133.941406 C 152.707031 135.605469 146.914062 141.746094 145.746094 149.285156 C 145.007812 154.082031 138.042969 154.082031 137.296875 149.285156 C 136.132812 141.746094 130.339844 135.605469 122.898438 133.941406 Z M 119.933594 38.777344 C 121.859375 41.683594 124.320312 44.199219 127.183594 46.1875 C 124.320312 48.148438 121.859375 50.660156 119.933594 53.566406 C 118 50.660156 115.539062 48.148438 112.679688 46.1875 C 115.539062 44.199219 118 41.683594 119.933594 38.777344 Z M 101.308594 50.335938 C 96.867188 49.375 96.851562 42.988281 101.308594 42.011719 C 108.75 40.34375 114.535156 34.175781 115.703125 26.632812 C 116.445312 21.886719 123.414062 21.882812 124.15625 26.632812 C 125.324219 34.175781 131.109375 40.34375 138.554688 42.011719 C 142.980469 42.984375 143.011719 49.355469 138.554688 50.335938 C 131.109375 52 125.324219 58.171875 124.15625 65.710938 C 123.410156 70.507812 116.445312 70.507812 115.703125 65.710938 C 114.535156 58.171875 108.75 52 101.308594 50.335938 Z M 101.308594 50.335938 " fill-opacity="1" fill-rule="evenodd"/></g><g clip-path="url(#0f51f42d66)"><g clip-path="url(#96214b6cb8)"><g clip-path="url(#9c208a8295)"><g clip-path="url(#024a471209)"><path fill="#0fc6eb" d="M 59.605469 64.019531 L 59.53125 61.894531 L 64.886719 61.683594 L 64.960938 63.808594 Z M 59.605469 64.019531 " fill-opacity="1" fill-rule="nonzero"/></g></g></g></g><g clip-path="url(#913ddebe59)"><g clip-path="url(#e0d29b74ae)"><g clip-path="url(#40d66d9214)"><g clip-path="url(#17d5fcab05)"><path fill="#108fcd" d="M 59.789062 56.453125 L 55.65625 59.96875 L 55.910156 60.414062 L 59.894531 60.253906 L 59.945312 61.6875 L 65.933594 61.449219 L 68.746094 58.429688 L 68.664062 56.101562 Z M 59.789062 56.453125 " fill-opacity="1" fill-rule="nonzero"/></g></g></g></g><g clip-path="url(#f03782d9d8)"><g clip-path="url(#44fc214cc9)"><g clip-path="url(#b471568f10)"><g clip-path="url(#3191c5fc5e)"><path fill="#108fcd" d="M 69.535156 66.863281 L 69.882812 66.675781 L 67.53125 60.03125 L 66.328125 61.328125 Z M 69.535156 66.863281 " fill-opacity="1" fill-rule="nonzero"/></g></g></g></g><g clip-path="url(#6e783ed29b)"><g clip-path="url(#3e03e601e8)"><g clip-path="url(#81aa4ec825)"><g clip-path="url(#b540b706a3)"><path fill="#108fcd" d="M 62.207031 88.933594 C 59.457031 89.042969 57.515625 87.925781 56.03125 86.808594 L 56.265625 93.570312 C 56.28125 93.921875 56.359375 94.257812 56.503906 94.574219 C 56.648438 94.894531 56.851562 95.171875 57.105469 95.410156 C 57.363281 95.648438 57.65625 95.828125 57.984375 95.949219 C 58.3125 96.070312 58.652344 96.125 59 96.109375 L 67.757812 95.761719 C 68.109375 95.75 68.441406 95.667969 68.761719 95.519531 C 69.082031 95.375 69.359375 95.171875 69.597656 94.914062 C 69.835938 94.65625 70.019531 94.363281 70.140625 94.035156 C 70.265625 93.707031 70.320312 93.367188 70.308594 93.015625 L 70.152344 88.617188 Z M 62.207031 88.933594 " fill-opacity="1" fill-rule="nonzero"/></g></g></g></g><g clip-path="url(#c00a37d207)"><g clip-path="url(#144c7a9ddf)"><g clip-path="url(#3b343ddca1)"><g clip-path="url(#ec61dcf0fe)"><path fill="#108fcd" d="M 59.03125 73.511719 L 66.371094 73.222656 C 65.507812 72.308594 64.820312 71.515625 64.789062 70.597656 L 64.558594 64.027344 L 59.976562 64.210938 L 60.078125 67.113281 C 60.191406 70.3125 57.878906 71.511719 56.574219 73.9375 C 57.28125 73.707031 58.085938 73.550781 59.03125 73.511719 Z M 59.03125 73.511719 " fill-opacity="1" fill-rule="nonzero"/></g></g></g></g><g clip-path="url(#2a1a6e10d7)"><g clip-path="url(#a46cd7766e)"><g clip-path="url(#da8d6488b0)"><g clip-path="url(#9eb60aba19)"><path fill="#108fcd" d="M 68.9375 58.421875 L 68.863281 56.363281 L 70.464844 56.300781 L 70.539062 58.355469 Z M 68.9375 58.421875 " fill-opacity="1" fill-rule="nonzero"/></g></g></g></g><g clip-path="url(#3060d3cae3)"><g clip-path="url(#61f70fb88f)"><g clip-path="url(#bec4c86c5e)"><g clip-path="url(#d752b55ec8)"><path fill="#3cd1e5" d="M 77.085938 55.585938 C 77.082031 55.460938 77.03125 55.355469 76.941406 55.273438 C 76.851562 55.1875 76.742188 55.148438 76.617188 55.152344 C 76.492188 55.15625 76.386719 55.207031 76.304688 55.296875 C 76.21875 55.390625 76.179688 55.496094 76.183594 55.621094 C 76.1875 55.746094 76.234375 55.851562 76.324219 55.9375 C 76.417969 56.019531 76.523438 56.0625 76.648438 56.054688 C 76.773438 56.050781 76.878906 56.003906 76.964844 55.910156 C 77.050781 55.820312 77.089844 55.710938 77.085938 55.585938 Z M 77.085938 55.585938 " fill-opacity="1" fill-rule="nonzero"/></g></g></g></g><g clip-path="url(#235f935891)"><g clip-path="url(#58a2a4bb77)"><g clip-path="url(#57271451a6)"><g clip-path="url(#d7d226627b)"><path fill="#3cd1e5" d="M 75.085938 55.214844 C 75.082031 55.054688 75 54.980469 74.84375 54.984375 C 74.683594 54.992188 74.609375 55.074219 74.613281 55.230469 C 74.617188 55.390625 74.699219 55.464844 74.859375 55.460938 C 75.015625 55.453125 75.09375 55.371094 75.085938 55.214844 Z M 75.085938 55.214844 " fill-opacity="1" fill-rule="nonzero"/></g></g></g></g><g clip-path="url(#ff420a5555)"><g clip-path="url(#c64450392a)"><g clip-path="url(#f180d59bcb)"><g clip-path="url(#cb13220afd)"><path fill="#3cd1e5" d="M 70.929688 56.351562 L 70.941406 56.648438 L 75.222656 56.324219 Z M 70.929688 56.351562 " fill-opacity="1" fill-rule="nonzero"/></g></g></g></g><g clip-path="url(#db28995732)"><g clip-path="url(#6f62967ed9)"><g clip-path="url(#d2cecc3249)"><g clip-path="url(#5a81829882)"><path fill="#3cd1e5" d="M 75.992188 58.140625 C 76 58.34375 76.074219 58.511719 76.222656 58.648438 C 76.371094 58.785156 76.546875 58.851562 76.746094 58.84375 C 76.949219 58.835938 77.117188 58.757812 77.253906 58.609375 C 77.394531 58.460938 77.457031 58.285156 77.453125 58.082031 C 77.445312 57.882812 77.367188 57.710938 77.21875 57.574219 C 77.070312 57.4375 76.898438 57.375 76.695312 57.382812 C 76.496094 57.390625 76.324219 57.46875 76.1875 57.617188 C 76.050781 57.765625 75.984375 57.9375 75.992188 58.140625 Z M 75.992188 58.140625 " fill-opacity="1" fill-rule="nonzero"/></g></g></g></g><g clip-path="url(#04b0a0991f)"><g clip-path="url(#6b0c59fe94)"><g clip-path="url(#f524a1c88c)"><g clip-path="url(#80051c07c2)"><path fill="#3cd1e5" d="M 78.832031 55.707031 C 78.730469 55.710938 78.644531 55.75 78.578125 55.824219 C 78.507812 55.898438 78.476562 55.984375 78.480469 56.085938 C 78.484375 56.183594 78.523438 56.269531 78.59375 56.335938 C 78.667969 56.40625 78.753906 56.4375 78.855469 56.433594 C 78.957031 56.429688 79.039062 56.390625 79.109375 56.316406 C 79.175781 56.242188 79.210938 56.15625 79.207031 56.054688 C 79.203125 55.957031 79.164062 55.871094 79.089844 55.804688 C 79.015625 55.734375 78.929688 55.703125 78.832031 55.707031 Z M 78.832031 55.707031 " fill-opacity="1" fill-rule="nonzero"/></g></g></g></g><g clip-path="url(#5ecff3a680)"><g clip-path="url(#2c9652ded2)"><g clip-path="url(#d2d090c3d8)"><g clip-path="url(#6ed5c1e12e)"><path fill="#3cd1e5" d="M 74.914062 58.183594 C 74.917969 58.339844 75 58.417969 75.160156 58.410156 C 75.316406 58.40625 75.394531 58.324219 75.386719 58.164062 C 75.382812 58.007812 75.300781 57.929688 75.144531 57.9375 C 74.984375 57.945312 74.910156 58.027344 74.914062 58.183594 Z M 74.914062 58.183594 " fill-opacity="1" fill-rule="nonzero"/></g></g></g></g><g clip-path="url(#e4a978d642)"><g clip-path="url(#709eafb872)"><g clip-path="url(#8c5619261f)"><g clip-path="url(#1fcfa79175)"><path fill="#3cd1e5" d="M 70.957031 57.140625 L 79.335938 56.667969 L 70.949219 56.847656 Z M 70.957031 57.140625 " fill-opacity="1" fill-rule="nonzero"/></g></g></g></g><g clip-path="url(#6b4fd139b6)"><g clip-path="url(#f289f88c8a)"><g clip-path="url(#19612039c7)"><g clip-path="url(#a2d1217176)"><path fill="#3cd1e5" d="M 70.964844 57.378906 L 70.980469 57.746094 L 75.125 57.414062 Z M 70.964844 57.378906 " fill-opacity="1" fill-rule="nonzero"/></g></g></g></g><g clip-path="url(#a9a88d4762)"><g clip-path="url(#58fa8ffd92)"><g clip-path="url(#424e69625e)"><g clip-path="url(#e313d19ca3)"><path fill="#3cd1e5" d="M 70.996094 58.269531 L 73.726562 58.050781 L 70.988281 58.023438 Z M 70.996094 58.269531 " fill-opacity="1" fill-rule="nonzero"/></g></g></g></g><g clip-path="url(#de35d3bed1)"><g clip-path="url(#7ab0bc2a71)"><g clip-path="url(#3a64d1e001)"><g clip-path="url(#8d031d8c87)"><path fill="#3cd1e5" d="M 73.871094 59.285156 C 73.875 59.445312 73.957031 59.519531 74.113281 59.511719 C 74.273438 59.507812 74.347656 59.425781 74.34375 59.265625 C 74.339844 59.109375 74.257812 59.035156 74.097656 59.039062 C 73.941406 59.046875 73.863281 59.128906 73.871094 59.285156 Z M 73.871094 59.285156 " fill-opacity="1" fill-rule="nonzero"/></g></g></g></g><g clip-path="url(#3e8dda7700)"><g clip-path="url(#ca9d5e7822)"><g clip-path="url(#329bd58ecd)"><g clip-path="url(#f672e430be)"><path fill="#0fc6eb" d="M 43.613281 84.601562 L 43.429688 79.246094 L 45.554688 79.164062 L 45.742188 84.515625 Z M 43.613281 84.601562 " fill-opacity="1" fill-rule="nonzero"/></g></g></g></g><g clip-path="url(#fef6f13c53)"><g clip-path="url(#99d12ee8c8)"><g clip-path="url(#3e67b700fd)"><g clip-path="url(#e29dc417b4)"><path fill="#3cd1e5" d="M 39.242188 91.003906 L 39.691406 99.382812 L 39.539062 90.992188 Z M 39.242188 91.003906 " fill-opacity="1" fill-rule="nonzero"/></g></g></g></g><g clip-path="url(#67f20e82ea)"><g clip-path="url(#f7004f560b)"><g clip-path="url(#962091cb93)"><g clip-path="url(#3351e85823)"><path fill="#3cd1e5" d="M 38.75 91.023438 L 39.042969 95.308594 L 39.046875 91.011719 Z M 38.75 91.023438 " fill-opacity="1" fill-rule="nonzero"/></g></g></g></g><g clip-path="url(#013289e9ee)"><g clip-path="url(#a7b3c8e963)"><g clip-path="url(#c9607d95c5)"><g clip-path="url(#c08d96cb1a)"><path fill="#3cd1e5" d="M 40.652344 93.6875 L 40.667969 90.949219 L 40.421875 90.957031 Z M 40.652344 93.6875 " fill-opacity="1" fill-rule="nonzero"/></g></g></g></g><g clip-path="url(#b73bd182f5)"><g clip-path="url(#e744979f04)"><g clip-path="url(#5d8b37b1e1)"><g clip-path="url(#30a38714d3)"><path fill="#3cd1e5" d="M 39.777344 90.984375 L 40.121094 95.128906 L 40.144531 90.96875 Z M 39.777344 90.984375 " fill-opacity="1" fill-rule="nonzero"/></g></g></g></g><g clip-path="url(#0fe2f460d5)"><g clip-path="url(#5addae6b81)"><g clip-path="url(#161cfa50a7)"><g clip-path="url(#5b52a8f124)"><path fill="#3cd1e5" d="M 38.878906 96.75 C 38.875 96.625 38.828125 96.519531 38.738281 96.4375 C 38.644531 96.351562 38.539062 96.3125 38.414062 96.316406 C 38.289062 96.320312 38.183594 96.371094 38.097656 96.460938 C 38.011719 96.554688 37.972656 96.660156 37.976562 96.785156 C 37.980469 96.910156 38.027344 97.015625 38.121094 97.101562 C 38.210938 97.183594 38.320312 97.226562 38.445312 97.21875 C 38.570312 97.214844 38.675781 97.167969 38.757812 97.074219 C 38.84375 96.984375 38.882812 96.875 38.878906 96.75 Z M 38.878906 96.75 " fill-opacity="1" fill-rule="nonzero"/></g></g></g></g><g clip-path="url(#3568c044e2)"><g clip-path="url(#5fcfccdc59)"><g clip-path="url(#6895e1325f)"><g clip-path="url(#61b67d94c0)"><path fill="#3cd1e5" d="M 39.046875 98.574219 C 38.945312 98.578125 38.859375 98.617188 38.792969 98.691406 C 38.722656 98.765625 38.691406 98.851562 38.695312 98.953125 C 38.699219 99.050781 38.738281 99.136719 38.808594 99.203125 C 38.882812 99.273438 38.96875 99.304688 39.070312 99.300781 C 39.171875 99.296875 39.253906 99.257812 39.324219 99.183594 C 39.390625 99.109375 39.425781 99.023438 39.421875 98.921875 C 39.417969 98.824219 39.378906 98.738281 39.304688 98.671875 C 39.230469 98.601562 39.144531 98.570312 39.046875 98.574219 Z M 39.046875 98.574219 " fill-opacity="1" fill-rule="nonzero"/></g></g></g></g><g clip-path="url(#0b5a65d0cc)"><g clip-path="url(#06180544cf)"><g clip-path="url(#0b526c0916)"><g clip-path="url(#ecab270388)"><path fill="#3cd1e5" d="M 38.152344 95.007812 C 38.148438 94.851562 38.066406 94.773438 37.90625 94.78125 C 37.75 94.789062 37.671875 94.871094 37.679688 95.027344 C 37.683594 95.1875 37.765625 95.261719 37.921875 95.253906 C 38.082031 95.25 38.15625 95.167969 38.152344 95.007812 Z M 38.152344 95.007812 " fill-opacity="1" fill-rule="nonzero"/></g></g></g></g><g clip-path="url(#ad5c15e675)"><g clip-path="url(#5950d66fcd)"><g clip-path="url(#161379383b)"><g clip-path="url(#dd9d746042)"><path fill="#3cd1e5" d="M 40.207031 96.699219 C 40.210938 96.898438 40.289062 97.070312 40.4375 97.207031 C 40.585938 97.34375 40.761719 97.40625 40.960938 97.398438 C 41.164062 97.390625 41.332031 97.3125 41.46875 97.164062 C 41.609375 97.015625 41.671875 96.84375 41.667969 96.640625 C 41.660156 96.4375 41.582031 96.269531 41.433594 96.132812 C 41.285156 95.996094 41.113281 95.929688 40.910156 95.9375 C 40.707031 95.945312 40.539062 96.023438 40.402344 96.171875 C 40.265625 96.320312 40.199219 96.496094 40.207031 96.699219 Z M 40.207031 96.699219 " fill-opacity="1" fill-rule="nonzero"/></g></g></g></g><g clip-path="url(#e651f7e15f)"><g clip-path="url(#31cb07ebd3)"><g clip-path="url(#c9982f9536)"><g clip-path="url(#eea28e8170)"><path fill="#3cd1e5" d="M 41.667969 93.984375 C 41.671875 94.140625 41.753906 94.21875 41.910156 94.210938 C 42.070312 94.207031 42.144531 94.125 42.140625 93.964844 C 42.132812 93.808594 42.050781 93.730469 41.894531 93.738281 C 41.738281 93.746094 41.660156 93.828125 41.667969 93.984375 Z M 41.667969 93.984375 " fill-opacity="1" fill-rule="nonzero"/></g></g></g></g><g clip-path="url(#753cca2c49)"><g clip-path="url(#0a23fdc364)"><g clip-path="url(#e2e8e7f691)"><g clip-path="url(#820b005424)"><path fill="#3cd1e5" d="M 40.644531 95.109375 C 40.648438 95.265625 40.730469 95.339844 40.890625 95.335938 C 41.046875 95.328125 41.125 95.246094 41.117188 95.089844 C 41.113281 94.929688 41.03125 94.855469 40.871094 94.863281 C 40.714844 94.867188 40.640625 94.949219 40.644531 95.109375 Z M 40.644531 95.109375 " fill-opacity="1" fill-rule="nonzero"/></g></g></g></g><g clip-path="url(#e77e69a8a8)"><g clip-path="url(#ac78889b9e)"><g clip-path="url(#495c1133a9)"><g clip-path="url(#ff7688b48c)"><path fill="#108fcd" d="M 38.664062 90.566406 L 38.609375 88.964844 L 40.664062 88.882812 L 40.71875 90.484375 Z M 38.664062 90.566406 " fill-opacity="1" fill-rule="nonzero"/></g></g></g></g><g clip-path="url(#23ed15c05e)"><g clip-path="url(#266edd7a99)"><g clip-path="url(#aa02911dcf)"><g clip-path="url(#33977b1279)"><path fill="#108fcd" d="M 43.253906 79.671875 L 41.820312 79.730469 L 41.679688 75.742188 L 41.21875 75.523438 L 38.023438 79.90625 L 38.332031 88.785156 L 40.65625 88.691406 L 43.460938 85.664062 Z M 43.253906 79.671875 " fill-opacity="1" fill-rule="nonzero"/></g></g></g></g><g clip-path="url(#f8ebbe8440)"><g clip-path="url(#5b0ae92c21)"><g clip-path="url(#3aeffdbb1a)"><g clip-path="url(#5b95f074d0)"><path fill="#108fcd" d="M 42.167969 87.359375 L 48.964844 89.210938 L 49.125 88.851562 L 43.367188 86.0625 Z M 42.167969 87.359375 " fill-opacity="1" fill-rule="nonzero"/></g></g></g></g><g clip-path="url(#3cdc70800b)"><g clip-path="url(#bde8d030d6)"><g clip-path="url(#47447f4240)"><g clip-path="url(#47e14c3f03)"><path fill="#108fcd" d="M 74.773438 73.628906 L 70.121094 73.816406 L 59.058594 74.253906 C 53.371094 74.480469 53.207031 79.222656 48.671875 79.402344 L 45.769531 79.519531 L 45.929688 84.097656 L 52.5 83.839844 C 54.113281 83.773438 55.507812 85.785156 57.792969 87.097656 C 58.96875 87.769531 60.382812 88.261719 62.183594 88.191406 L 75.265625 87.671875 C 75.613281 87.660156 75.949219 87.578125 76.269531 87.429688 C 76.585938 87.285156 76.867188 87.082031 77.105469 86.824219 C 77.34375 86.566406 77.523438 86.273438 77.648438 85.945312 C 77.769531 85.617188 77.824219 85.277344 77.8125 84.925781 L 77.507812 76.167969 C 77.496094 75.816406 77.417969 75.484375 77.269531 75.164062 C 77.125 74.847656 76.925781 74.570312 76.667969 74.332031 C 76.414062 74.09375 76.121094 73.914062 75.792969 73.792969 C 75.464844 73.671875 75.125 73.617188 74.773438 73.628906 Z M 74.773438 73.628906 " fill-opacity="1" fill-rule="nonzero"/></g></g></g></g><g clip-path="url(#30efe5891b)"><g clip-path="url(#eaa7da4fee)"><g clip-path="url(#b7a9ef67cc)"><g clip-path="url(#d8f96cfc5d)"><path fill="#0fc6eb" d="M 76.5625 86.320312 C 76.207031 86.707031 75.765625 86.910156 75.238281 86.929688 L 62.15625 87.449219 C 61.035156 87.492188 60.015625 87.308594 59.007812 86.875 L 70.453125 74.546875 L 74.800781 74.371094 C 75.050781 74.363281 75.296875 74.402344 75.53125 74.488281 C 75.769531 74.578125 75.976562 74.707031 76.164062 74.875 C 76.347656 75.046875 76.492188 75.246094 76.59375 75.476562 C 76.699219 75.707031 76.757812 75.945312 76.765625 76.199219 L 77.070312 84.957031 C 77.089844 85.480469 76.921875 85.9375 76.5625 86.320312 Z M 76.5625 86.320312 " fill-opacity="1" fill-rule="nonzero"/></g></g></g></g><g clip-path="url(#8c1ca57e7e)"><g clip-path="url(#6e2d4e673a)"><g clip-path="url(#e1341afa98)"><g clip-path="url(#6f582010aa)"><path fill="#ffffff" d="M 67.679688 83.492188 C 67.898438 83.394531 68.121094 83.386719 68.34375 83.46875 C 68.570312 83.554688 68.730469 83.703125 68.828125 83.921875 C 68.929688 84.140625 68.9375 84.359375 68.851562 84.585938 C 68.765625 84.808594 68.613281 84.972656 68.398438 85.074219 C 68.179688 85.171875 67.957031 85.179688 67.734375 85.097656 C 67.507812 85.011719 67.347656 84.863281 67.25 84.644531 C 67.148438 84.425781 67.144531 84.207031 67.226562 83.980469 C 67.3125 83.757812 67.464844 83.59375 67.679688 83.492188 Z M 67.679688 83.492188 " fill-opacity="1" fill-rule="nonzero"/></g></g></g></g><g clip-path="url(#32c0499220)"><g clip-path="url(#1b33d398a5)"><g clip-path="url(#cbea2f5172)"><g clip-path="url(#72e0b48f8d)"><path fill="#ffffff" d="M 65.785156 81.660156 C 65.875 81.566406 65.914062 81.457031 65.910156 81.328125 C 65.90625 81.199219 65.855469 81.089844 65.761719 81.003906 C 65.667969 80.914062 65.558594 80.875 65.429688 80.878906 C 65.300781 80.886719 65.191406 80.933594 65.105469 81.027344 C 65.019531 81.125 64.976562 81.234375 64.980469 81.363281 C 64.984375 81.492188 65.035156 81.601562 65.128906 81.6875 C 65.222656 81.773438 65.332031 81.816406 65.460938 81.808594 C 65.589844 81.804688 65.699219 81.753906 65.785156 81.660156 Z M 65.785156 81.660156 " fill-opacity="1" fill-rule="nonzero"/></g></g></g></g><g clip-path="url(#d92a982a2a)"><g clip-path="url(#99725f7aea)"><g clip-path="url(#8eb93fb061)"><g clip-path="url(#15f956b06c)"><path fill="#ffffff" d="M 66.332031 82.8125 C 66.238281 82.726562 66.128906 82.6875 66 82.691406 C 65.871094 82.695312 65.761719 82.746094 65.675781 82.839844 C 65.585938 82.933594 65.546875 83.046875 65.550781 83.175781 C 65.554688 83.304688 65.605469 83.410156 65.699219 83.5 C 65.792969 83.585938 65.902344 83.625 66.03125 83.621094 C 66.160156 83.617188 66.269531 83.566406 66.355469 83.472656 C 66.441406 83.378906 66.484375 83.265625 66.480469 83.136719 C 66.476562 83.007812 66.425781 82.902344 66.332031 82.8125 Z M 66.332031 82.8125 " fill-opacity="1" fill-rule="nonzero"/></g></g></g></g><g clip-path="url(#afc110121a)"><g clip-path="url(#a2c897ca9f)"><g clip-path="url(#62c0ecd3b8)"><g clip-path="url(#94eef3fb70)"><path fill="#ffffff" d="M 63.289062 82.414062 C 63.179688 82.53125 63.183594 82.648438 63.300781 82.757812 C 63.421875 82.867188 63.535156 82.863281 63.644531 82.742188 C 63.753906 82.625 63.75 82.511719 63.632812 82.402344 C 63.515625 82.292969 63.402344 82.296875 63.289062 82.414062 Z M 63.289062 82.414062 " fill-opacity="1" fill-rule="nonzero"/></g></g></g></g><g clip-path="url(#596136514d)"><g clip-path="url(#f3cc1e3fbf)"><g clip-path="url(#c21f23128a)"><g clip-path="url(#26a818fb6b)"><path fill="#ffffff" d="M 64.265625 83.648438 C 64.152344 83.769531 64.15625 83.882812 64.277344 83.992188 C 64.394531 84.101562 64.507812 84.097656 64.617188 83.976562 C 64.730469 83.859375 64.726562 83.746094 64.605469 83.636719 C 64.488281 83.527344 64.375 83.53125 64.265625 83.648438 Z M 64.265625 83.648438 " fill-opacity="1" fill-rule="nonzero"/></g></g></g></g><g clip-path="url(#b470240c76)"><g clip-path="url(#943fb83404)"><g clip-path="url(#b08433f925)"><g clip-path="url(#f6814964ab)"><path fill="#ffffff" d="M 70.871094 82.507812 C 71.019531 82.644531 71.097656 82.820312 71.105469 83.023438 C 71.113281 83.230469 71.046875 83.410156 70.90625 83.558594 C 70.765625 83.710938 70.59375 83.789062 70.386719 83.796875 C 70.183594 83.808594 70.003906 83.742188 69.855469 83.601562 C 69.703125 83.460938 69.625 83.289062 69.617188 83.082031 C 69.609375 82.878906 69.675781 82.699219 69.816406 82.546875 C 69.957031 82.398438 70.128906 82.316406 70.335938 82.308594 C 70.542969 82.300781 70.71875 82.367188 70.871094 82.507812 Z M 70.871094 82.507812 " fill-opacity="1" fill-rule="nonzero"/></g></g></g></g><g clip-path="url(#28a8aa9b4a)"><g clip-path="url(#7fa7499da6)"><g clip-path="url(#98a42adf18)"><g clip-path="url(#d3ff206acc)"><path fill="#0fc6eb" d="M 53.132812 87.453125 C 53.132812 87.453125 47.703125 104.683594 58.046875 104.765625 C 68.386719 104.847656 88.894531 79.363281 85.457031 59.070312 C 85.457031 59.070312 94.222656 71.480469 87.097656 84.84375 C 79.976562 98.210938 80.554688 88.574219 80.554688 88.574219 C 80.554688 88.574219 63.34375 117.710938 53.15625 112.085938 C 42.96875 106.464844 53.132812 87.453125 53.132812 87.453125 Z M 53.132812 87.453125 " fill-opacity="1" fill-rule="nonzero"/></g></g></g></g><g clip-path="url(#b4f25c764e)"><g clip-path="url(#5a019081f9)"><g clip-path="url(#b3855eff56)"><g clip-path="url(#95d4d4df75)"><path fill="#ffffff" d="M 86.917969 68.042969 C 86.824219 69.449219 86.675781 70.84375 86.457031 72.230469 L 86.273438 73.265625 C 86.21875 73.613281 86.125 73.949219 86.054688 74.292969 L 85.945312 74.808594 L 85.808594 75.316406 C 85.710938 75.652344 85.632812 75.996094 85.53125 76.332031 C 85.304688 76.996094 85.105469 77.667969 84.824219 78.3125 C 84.601562 78.984375 84.242188 79.59375 83.957031 80.246094 C 84.765625 79.0625 85.414062 77.796875 85.894531 76.449219 C 86.367188 75.097656 86.714844 73.71875 86.945312 72.304688 C 87.160156 70.898438 87.28125 69.480469 87.300781 68.058594 C 87.324219 66.636719 87.25 65.214844 87.035156 63.816406 C 87.039062 64.523438 87.046875 65.230469 87.015625 65.933594 C 87 66.640625 86.960938 67.34375 86.917969 68.042969 Z M 86.917969 68.042969 " fill-opacity="1" fill-rule="nonzero"/></g></g></g></g><g clip-path="url(#f0631084df)"><g clip-path="url(#d445ff4e36)"><g clip-path="url(#f82e1cb410)"><g clip-path="url(#98cb9fe90f)"><path fill="#ffffff" d="M 53.308594 104.679688 C 52.835938 104.210938 52.4375 103.652344 52.085938 103.066406 C 51.734375 102.464844 51.425781 101.839844 51.160156 101.195312 C 51.234375 101.902344 51.445312 102.59375 51.742188 103.246094 C 52.042969 103.914062 52.449219 104.507812 52.960938 105.03125 C 53.484375 105.539062 54.125 105.960938 54.84375 106.140625 C 55.554688 106.339844 56.308594 106.296875 56.984375 106.097656 C 56.277344 106.09375 55.585938 106.019531 54.964844 105.773438 C 54.335938 105.535156 53.785156 105.148438 53.308594 104.679688 Z M 53.308594 104.679688 " fill-opacity="1" fill-rule="nonzero"/></g></g></g></g><g clip-path="url(#af6642d9de)"><g clip-path="url(#3632c65552)"><g clip-path="url(#8848499be1)"><g clip-path="url(#0df1544993)"><path fill="#0fc6eb" d="M 82.035156 75.488281 C 82.117188 75.300781 82.191406 75.113281 82.265625 74.925781 C 82.339844 74.734375 82.398438 74.542969 82.46875 74.351562 C 82.601562 73.964844 82.730469 73.582031 82.851562 73.195312 C 82.976562 72.808594 83.066406 72.410156 83.175781 72.019531 C 83.394531 71.234375 83.519531 70.429688 83.671875 69.628906 C 83.90625 68.015625 84.003906 66.382812 83.90625 64.757812 C 83.878906 64.351562 83.859375 63.945312 83.800781 63.542969 L 83.71875 62.9375 L 83.613281 62.339844 C 83.449219 61.542969 83.257812 60.75 82.933594 60.011719 C 83.152344 61.605469 83.179688 63.191406 83.136719 64.773438 C 83.085938 66.351562 82.917969 67.921875 82.691406 69.480469 C 82.550781 70.257812 82.441406 71.042969 82.261719 71.8125 C 82.179688 72.199219 82.113281 72.589844 82.015625 72.972656 C 81.914062 73.355469 81.820312 73.742188 81.726562 74.128906 C 81.679688 74.320312 81.640625 74.515625 81.585938 74.707031 C 81.53125 74.898438 81.472656 75.089844 81.421875 75.28125 L 81.101562 76.433594 C 80.878906 77.203125 80.621094 77.960938 80.417969 78.746094 C 80.820312 78.046875 81.203125 77.332031 81.554688 76.605469 Z M 82.035156 75.488281 " fill-opacity="1" fill-rule="nonzero"/></g></g></g></g><g clip-path="url(#c893cf9896)"><g clip-path="url(#edfffa297f)"><g clip-path="url(#d5a0422d72)"><g clip-path="url(#464852b376)"><path fill="#0fc6eb" d="M 48.132812 102.421875 C 48.082031 102.371094 47.773438 102.609375 47.398438 102.984375 C 47.296875 102.945312 47.191406 102.949219 47.089844 102.996094 C 46.691406 102.652344 46.371094 102.4375 46.320312 102.492188 C 46.269531 102.546875 46.503906 102.855469 46.875 103.226562 C 46.839844 103.332031 46.84375 103.433594 46.886719 103.535156 C 46.542969 103.933594 46.328125 104.257812 46.382812 104.308594 C 46.4375 104.359375 46.742188 104.121094 47.117188 103.75 C 47.222656 103.785156 47.324219 103.78125 47.425781 103.738281 C 47.824219 104.078125 48.148438 104.292969 48.199219 104.238281 C 48.25 104.183594 48.011719 103.878906 47.640625 103.503906 C 47.679688 103.402344 47.675781 103.296875 47.628906 103.195312 C 47.972656 102.796875 48.1875 102.472656 48.132812 102.421875 Z M 48.132812 102.421875 " fill-opacity="1" fill-rule="nonzero"/></g></g></g></g><g clip-path="url(#398a9bb319)"><g clip-path="url(#9c722a0a13)"><g clip-path="url(#418494429a)"><g clip-path="url(#dbb358d012)"><path fill="#ffffff" d="M 50.972656 104.78125 C 50.933594 104.746094 50.71875 104.914062 50.457031 105.179688 C 50.382812 105.152344 50.308594 105.15625 50.238281 105.1875 C 49.957031 104.945312 49.730469 104.796875 49.695312 104.832031 C 49.660156 104.871094 49.828125 105.085938 50.089844 105.351562 C 50.0625 105.421875 50.0625 105.496094 50.09375 105.566406 C 49.851562 105.847656 49.703125 106.078125 49.738281 106.113281 C 49.777344 106.148438 49.996094 105.980469 50.257812 105.71875 C 50.332031 105.742188 50.402344 105.742188 50.472656 105.707031 C 50.753906 105.949219 50.984375 106.101562 51.019531 106.0625 C 51.054688 106.023438 50.886719 105.808594 50.625 105.546875 C 50.652344 105.472656 50.648438 105.398438 50.617188 105.328125 C 50.859375 105.046875 51.011719 104.820312 50.972656 104.78125 Z M 50.972656 104.78125 " fill-opacity="1" fill-rule="nonzero"/></g></g></g></g><g clip-path="url(#17f1f16a0d)"><g clip-path="url(#b5379a073c)"><g clip-path="url(#e78059dfde)"><g clip-path="url(#87869b45f6)"><path fill="#0fc6eb" d="M 58.886719 100.699219 C 58.820312 100.640625 58.417969 100.960938 57.933594 101.453125 C 57.835938 101.421875 57.738281 101.425781 57.640625 101.464844 C 57.125 101.011719 56.699219 100.722656 56.636719 100.789062 C 56.574219 100.855469 56.894531 101.257812 57.386719 101.742188 C 57.355469 101.839844 57.359375 101.9375 57.394531 102.03125 C 56.941406 102.554688 56.648438 102.980469 56.714844 103.042969 C 56.78125 103.101562 57.1875 102.78125 57.671875 102.289062 C 57.769531 102.316406 57.867188 102.316406 57.960938 102.277344 C 58.480469 102.726562 58.90625 103.019531 58.964844 102.953125 C 59.027344 102.886719 58.707031 102.484375 58.21875 102 C 58.25 101.902344 58.246094 101.804688 58.207031 101.710938 C 58.664062 101.1875 58.953125 100.761719 58.886719 100.699219 Z M 58.886719 100.699219 " fill-opacity="1" fill-rule="nonzero"/></g></g></g></g><g clip-path="url(#addcee2006)"><g clip-path="url(#6decf0fedf)"><g clip-path="url(#a1c9c25f36)"><g clip-path="url(#ae18bb8d0a)"><path fill="#ffffff" d="M 82.269531 82.625 C 82.238281 82.597656 82.015625 82.785156 81.738281 83.066406 C 81.667969 83.039062 81.597656 83.039062 81.527344 83.074219 C 81.234375 82.816406 80.996094 82.648438 80.96875 82.679688 C 80.9375 82.710938 81.125 82.933594 81.40625 83.207031 C 81.375 83.277344 81.378906 83.351562 81.414062 83.417969 C 81.152344 83.714844 80.980469 83.953125 81.011719 83.980469 C 81.042969 84.011719 81.269531 83.820312 81.542969 83.539062 C 81.617188 83.570312 81.6875 83.566406 81.757812 83.53125 C 82.050781 83.789062 82.285156 83.960938 82.316406 83.929688 C 82.34375 83.898438 82.15625 83.675781 81.878906 83.402344 C 81.90625 83.328125 81.90625 83.257812 81.871094 83.1875 C 82.128906 82.890625 82.300781 82.65625 82.269531 82.625 Z M 82.269531 82.625 " fill-opacity="1" fill-rule="nonzero"/></g></g></g></g><g clip-path="url(#c70c6a9de1)"><g clip-path="url(#5b5eb07ed7)"><g clip-path="url(#777b0df90c)"><g clip-path="url(#b77d7bd2b6)"><path fill="#ffffff" d="M 84.992188 83.117188 C 84.972656 83.097656 84.820312 83.222656 84.636719 83.410156 C 84.589844 83.390625 84.539062 83.394531 84.496094 83.417969 C 84.296875 83.246094 84.140625 83.128906 84.121094 83.152344 C 84.101562 83.171875 84.226562 83.320312 84.414062 83.503906 C 84.394531 83.554688 84.394531 83.601562 84.417969 83.648438 C 84.242188 83.847656 84.128906 84.003906 84.148438 84.023438 C 84.171875 84.042969 84.320312 83.917969 84.503906 83.730469 C 84.554688 83.75 84.601562 83.746094 84.648438 83.722656 C 84.84375 83.898438 85.003906 84.011719 85.023438 83.988281 C 85.042969 83.96875 84.917969 83.820312 84.730469 83.636719 C 84.75 83.585938 84.746094 83.539062 84.722656 83.492188 C 84.898438 83.296875 85.011719 83.136719 84.992188 83.117188 Z M 84.992188 83.117188 " fill-opacity="1" fill-rule="nonzero"/></g></g></g></g><g clip-path="url(#37df8e7099)"><g clip-path="url(#28a5f4c2c0)"><g clip-path="url(#492eac1d87)"><g clip-path="url(#7e25c348cc)"><path fill="#ffffff" d="M 83.890625 85.390625 C 83.84375 85.347656 83.503906 85.632812 83.085938 86.0625 C 82.976562 86.015625 82.867188 86.019531 82.761719 86.074219 C 82.3125 85.679688 81.953125 85.421875 81.910156 85.46875 C 81.867188 85.519531 82.148438 85.855469 82.574219 86.273438 C 82.53125 86.382812 82.535156 86.492188 82.585938 86.597656 C 82.191406 87.046875 81.929688 87.40625 81.980469 87.453125 C 82.027344 87.496094 82.367188 87.210938 82.785156 86.78125 C 82.894531 86.828125 83.003906 86.824219 83.109375 86.769531 C 83.558594 87.164062 83.914062 87.421875 83.960938 87.375 C 84.003906 87.324219 83.71875 86.988281 83.292969 86.570312 C 83.339844 86.460938 83.335938 86.351562 83.285156 86.246094 C 83.679688 85.796875 83.9375 85.4375 83.890625 85.390625 Z M 83.890625 85.390625 " fill-opacity="1" fill-rule="nonzero"/></g></g></g></g><g clip-path="url(#e6dc16fbda)"><g clip-path="url(#542ea4063d)"><g clip-path="url(#c8e1758578)"><g clip-path="url(#0cdb1bac7d)"><g clip-path="url(#56c965fdf5)"><path fill="#51ace4" d="M 212.191406 58.683594 C 220.65625 41.34375 237.152344 27.882812 256.113281 24.425781 C 284.433594 19.261719 323.222656 35.550781 343.191406 20.765625 C 334.636719 33.730469 310.226562 33.0625 297.296875 32.804688 C 275.835938 32.378906 256.0625 26.613281 236.144531 37.414062 C 226.800781 42.480469 218.324219 49.9375 212.191406 58.683594 " fill-opacity="1" fill-rule="nonzero"/></g></g></g></g></g><g clip-path="url(#03e9441717)"><g clip-path="url(#5dbb09b324)"><g clip-path="url(#f62414d1fb)"><g clip-path="url(#f7ba7d7afc)"><path fill="#3a73c1" d="M 352.160156 3.230469 C 352.160156 3.230469 330.632812 27.699219 292.738281 15.558594 C 292.738281 15.558594 335.332031 38.886719 352.160156 3.230469 " fill-opacity="1" fill-rule="nonzero"/></g></g></g></g><g clip-path="url(#9cb26ac46c)"><g clip-path="url(#3466a81388)"><g clip-path="url(#bae33323ec)"><g clip-path="url(#2a7ded985d)"><g clip-path="url(#68cb18e81a)"><path fill="#3a73c1" d="M 217.097656 77.671875 C 217.097656 77.671875 222.515625 45.378906 260.972656 35.554688 C 260.972656 35.554688 212.675781 38.355469 217.097656 77.671875 " fill-opacity="1" fill-rule="nonzero"/></g></g></g></g></g></svg>