<svg version="1.1" id="Layer_1" xmlns="http://www.w3.org/2000/svg" xmlns:xlink="http://www.w3.org/1999/xlink" x="0px" y="0px"
	 width="100%" viewBox="0 0 92 150" enable-background="new 0 0 92 150" xml:space="preserve">
<path fill="#FDFDFD" opacity="1.000000" stroke="none" 
	d="
M41.000000,151.000000 
	C27.346949,151.000000 14.193896,151.000000 1.020422,151.000000 
	C1.020422,101.065323 1.020422,51.130634 1.020422,1.097974 
	C31.569363,1.097974 62.139141,1.097974 92.854462,1.097974 
	C92.854462,50.999664 92.854462,100.999786 92.854462,151.000000 
	C75.797798,151.000000 58.648899,151.000000 41.000000,151.000000 
M34.732635,63.769138 
	C33.828392,68.659729 33.365692,73.685799 31.916378,78.409142 
	C29.743835,85.489494 26.652843,86.785706 19.284735,84.884399 
	C18.575066,84.701271 17.726599,85.056023 16.159109,85.266060 
	C18.670389,87.507538 20.514757,89.392662 22.594086,90.967560 
	C30.792057,97.176788 36.188824,95.411926 39.303799,85.608078 
	C39.504726,84.975685 39.787453,84.361168 39.916485,83.715233 
	C42.753933,69.510956 41.791187,55.234966 40.670685,40.959526 
	C40.670490,40.957027 40.225784,40.989422 39.423096,41.032970 
	C39.212967,41.335579 39.002838,41.638187 38.239395,42.146690 
	C37.468933,43.022907 36.698471,43.899124 35.188465,45.281170 
	C35.120155,51.191032 35.051849,57.100899 34.732635,63.769138 
M18.022242,95.177765 
	C17.766239,95.228302 17.510235,95.278839 17.254232,95.329376 
	C17.413675,95.639816 17.573118,95.950264 17.972481,96.887115 
	C22.140394,101.187584 25.989265,105.864395 30.535608,109.718452 
	C44.577454,121.622078 53.968334,118.442764 57.998257,100.457390 
	C62.464859,80.523102 60.725231,60.370831 59.495483,40.267067 
	C59.158165,34.752602 58.502586,29.257607 57.961517,23.413034 
	C51.796947,27.455046 49.415653,32.027843 49.874367,39.147156 
	C50.653187,51.234638 50.583599,63.452480 49.755798,75.539185 
	C49.265087,82.704071 47.374695,90.007607 44.774307,96.730774 
	C41.888851,104.190979 35.986137,105.911682 28.836336,102.329895 
	C25.155596,100.485962 21.898357,97.796661 18.022242,95.177765 
M78.033104,15.446907 
	C77.613457,12.099334 77.193810,8.751760 76.744041,5.163964 
	C70.018448,9.849974 66.893753,14.599750 67.477463,23.430449 
	C69.000015,46.464230 69.288872,69.644264 68.634315,92.725258 
	C68.374084,101.901718 65.168236,111.300209 61.756687,119.990395 
	C58.726994,127.707878 52.053246,129.759308 44.356018,126.704346 
	C40.245491,125.072914 36.622120,122.226196 32.744370,119.987747 
	C31.750374,119.413956 30.625393,119.067078 29.560591,118.615952 
	C30.767418,121.404167 32.100861,123.815674 34.086266,125.420738 
	C41.278835,131.235474 48.213722,137.606277 56.157806,142.184982 
	C63.576550,146.460907 70.411690,143.443314 74.572876,135.867096 
	C76.079071,133.124786 77.509323,130.155701 78.082741,127.121597 
	C79.653389,118.810921 81.414734,110.450188 81.914124,102.038826 
	C83.616539,73.364670 81.246223,44.824162 78.033104,15.446907 
z"/>
<path fill="#18509D" opacity="1.000000" stroke="none" 
	d="
M78.061546,15.893638 
	C81.246223,44.824162 83.616539,73.364670 81.914124,102.038826 
	C81.414734,110.450188 79.653389,118.810921 78.082741,127.121597 
	C77.509323,130.155701 76.079071,133.124786 74.572876,135.867096 
	C70.411690,143.443314 63.576550,146.460907 56.157806,142.184982 
	C48.213722,137.606277 41.278835,131.235474 34.086266,125.420738 
	C32.100861,123.815674 30.767418,121.404167 29.560591,118.615952 
	C30.625393,119.067078 31.750374,119.413956 32.744370,119.987747 
	C36.622120,122.226196 40.245491,125.072914 44.356018,126.704346 
	C52.053246,129.759308 58.726994,127.707878 61.756687,119.990395 
	C65.168236,111.300209 68.374084,101.901718 68.634315,92.725258 
	C69.288872,69.644264 69.000015,46.464230 67.477463,23.430449 
	C66.893753,14.599750 70.018448,9.849974 76.744041,5.163964 
	C77.193810,8.751760 77.613457,12.099334 78.061546,15.893638 
z"/>
<path fill="#8A8B8B" opacity="1.000000" stroke="none" 
	d="
M18.449751,95.489357 
	C21.898357,97.796661 25.155596,100.485962 28.836336,102.329895 
	C35.986137,105.911682 41.888851,104.190979 44.774307,96.730774 
	C47.374695,90.007607 49.265087,82.704071 49.755798,75.539185 
	C50.583599,63.452480 50.653187,51.234638 49.874367,39.147156 
	C49.415653,32.027843 51.796947,27.455046 57.961517,23.413034 
	C58.502586,29.257607 59.158165,34.752602 59.495483,40.267067 
	C60.725231,60.370831 62.464859,80.523102 57.998257,100.457390 
	C53.968334,118.442764 44.577454,121.622078 30.535608,109.718452 
	C25.989265,105.864395 22.140394,101.187584 18.037502,96.386353 
	C18.218267,95.753517 18.334009,95.621437 18.449751,95.489357 
z"/>
<path fill="#1D529D" opacity="1.000000" stroke="none" 
	d="
M39.988731,41.005512 
	C40.225784,40.989422 40.670490,40.957027 40.670685,40.959526 
	C41.791187,55.234966 42.753933,69.510956 39.916485,83.715233 
	C39.787453,84.361168 39.504726,84.975685 39.303799,85.608078 
	C36.188824,95.411926 30.792057,97.176788 22.594086,90.967560 
	C20.514757,89.392662 18.670389,87.507538 16.159109,85.266060 
	C17.726599,85.056023 18.575066,84.701271 19.284735,84.884399 
	C26.652843,86.785706 29.743835,85.489494 31.916378,78.409142 
	C33.365692,73.685799 33.828392,68.659729 35.158405,63.097439 
	C35.698788,56.542274 35.813400,50.658806 35.928009,44.775341 
	C36.698471,43.899124 37.468933,43.022907 38.769424,41.965225 
	C39.529217,41.524342 39.758976,41.264927 39.988731,41.005512 
z"/>
<path fill="#1A4A91" opacity="1.000000" stroke="none" 
	d="
M35.558235,45.028255 
	C35.813400,50.658806 35.698788,56.542274 35.283859,62.718250 
	C35.051849,57.100899 35.120155,51.191032 35.558235,45.028255 
z"/>
<path fill="#1A4A91" opacity="1.000000" stroke="none" 
	d="
M39.705914,41.019241 
	C39.758976,41.264927 39.529217,41.524342 39.046082,41.862274 
	C39.002838,41.638187 39.212967,41.335579 39.705914,41.019241 
z"/>
<path fill="#8A8B8B" opacity="1.000000" stroke="none" 
	d="
M17.917542,96.073151 
	C17.573118,95.950264 17.413675,95.639816 17.254232,95.329376 
	C17.510235,95.278839 17.766239,95.228302 18.235996,95.333557 
	C18.334009,95.621437 18.218267,95.753517 17.917542,96.073151 
z"/>
</svg>